<?xml version="1.0" encoding="UTF-8"?>
<svg version="1.1" xmlns="http://www.w3.org/2000/svg" width="500" height="500">
<path d="M0 0 C9.24 0 18.48 0 28 0 C28 32.01 28 64.02 28 97 C28.66 97 29.32 97 30 97 C30.28875 96.360625 30.5775 95.72125 30.875 95.0625 C32 93 32 93 34 92 C34.45375 91.236875 34.9075 90.47375 35.375 89.6875 C37.93641423 85.45131492 40.59118941 83.12839132 45 81 C45.33 80.34 45.66 79.68 46 79 C46.99 79 47.98 79 49 79 C49.33 78.34 49.66 77.68 50 77 C56.95283596 73.11308248 64.32057711 70.91985572 72 69 C72.99 68.67 73.98 68.34 75 68 C77.3406065 68.27769908 79.67624308 68.60539977 82 69 C82 68.34 82 67.68 82 67 C84.97 67 87.94 67 91 67 C91 67.33 91 67.66 91 68 C94.3 68 97.6 68 101 68 C101 68.66 101 69.32 101 70 C101.57621094 69.81179687 102.15242188 69.62359375 102.74609375 69.4296875 C109.61696245 68.11981652 119.12212629 73.81965047 125 77 C125.33 77.66 125.66 78.32 126 79 C127.66279327 80.0064275 129.32983484 81.00585407 131 82 C133.40879165 84.06467856 133.96331553 84.88994659 135 88 C135.66 88.33 136.32 88.66 137 89 C137.66666667 91.33333333 138.33333333 93.66666667 139 96 C139.66 96.33 140.32 96.66 141 97 C142 99.1171875 142 99.1171875 143 101.875 C143.33 102.75929688 143.66 103.64359375 144 104.5546875 C146.69891317 113.85328678 147.28465199 122.81210253 147.22705078 132.45776367 C147.22734283 133.75659485 147.22763489 135.05542603 147.22793579 136.39361572 C147.2285045 139.91976831 147.21682918 143.44578201 147.20278788 146.97190261 C147.19019931 150.67008856 147.18910366 154.36827847 147.18673706 158.06648254 C147.18054599 165.05371693 147.16416765 172.04088797 147.14403808 179.02809459 C147.12160477 186.98949519 147.11066705 194.95089897 147.10064721 202.91232336 C147.07979904 219.27491919 147.04466973 235.63745148 147 252 C143.62511542 252.16905897 140.25007637 252.33481769 136.875 252.5 C135.44800781 252.57154297 135.44800781 252.57154297 133.9921875 252.64453125 C129.32313191 252.87149923 124.67636296 253.06298132 120 253 C118.75811236 250.51622473 118.87964445 248.87800906 118.88647461 246.09907532 C118.88658035 244.54509285 118.88658035 244.54509285 118.88668823 242.9597168 C118.89443771 241.24776123 118.89443771 241.24776123 118.90234375 239.5012207 C118.90453415 237.70348457 118.90453415 237.70348457 118.9067688 235.86943054 C118.91058295 233.25898979 118.91620963 230.6486247 118.92483521 228.03820229 C118.93834448 223.90691493 118.94424956 219.77563834 118.94897461 215.64433289 C118.96103081 206.12201145 118.98303545 196.59971779 119.00520325 187.07741547 C119.02539986 178.36406835 119.04347516 169.65073087 119.05341816 160.93736523 C119.05757527 157.50598594 119.06389009 154.07463817 119.07516479 150.64327431 C119.08713662 146.81076061 119.09302051 142.97828053 119.09765625 139.14575195 C119.10540573 137.44897812 119.10540573 137.44897812 119.11331177 135.71792603 C119.38920998 126.61858531 119.38920998 126.61858531 117 118 C117.495 116.515 117.495 116.515 118 115 C117.34 114.67 116.68 114.34 116 114 C114.6250851 111.09740189 114 109.23861295 114 106 C113.34 106 112.68 106 112 106 C108 101.52941176 108 101.52941176 108 99 C107.484375 98.896875 106.96875 98.79375 106.4375 98.6875 C104 98 104 98 100.8125 96.5625 C88.89576685 91.4337794 74.22131733 91.16301728 62.125 95.75 C52.75985243 99.68421725 44.78252808 104.11893045 38.75 112.5 C38.06421875 113.4384375 37.3784375 114.376875 36.671875 115.34375 C35.19955343 117.6829525 34.43210019 119.30572823 34 122 C33.34 122 32.68 122 32 122 C32.33 122.99 32.66 123.98 33 125 C32.34 125 31.68 125 31 125 C31.04125 126.03125 31.0825 127.0625 31.125 128.125 C31 132 31 132 30.0625 134.6875 C26.22932279 146.63799367 27.87188431 160.84585662 27.90234375 173.265625 C27.90421175 175.51291879 27.90563385 177.76021298 27.90663147 180.00750732 C27.9104266 185.8862625 27.92023083 191.76499248 27.93133545 197.64373779 C27.94161456 203.65701965 27.94614295 209.67030562 27.95117188 215.68359375 C27.96185613 227.45574016 27.97889596 239.22786797 28 251 C24.26950513 252.57661465 21.54599006 253.24073732 17.48046875 253.1953125 C15.9480957 253.18564453 15.9480957 253.18564453 14.38476562 253.17578125 C12.80211914 253.15064453 12.80211914 253.15064453 11.1875 253.125 C10.11306641 253.11597656 9.03863281 253.10695313 7.93164062 253.09765625 C5.28753146 253.07415306 2.64388128 253.04129575 0 253 C-1.1554955 250.689009 -1.11896226 249.40425499 -1.10743046 246.83394432 C-1.10593811 245.95562993 -1.10444576 245.07731555 -1.10290819 244.17238557 C-1.0961044 243.20158323 -1.08930061 242.23078089 -1.08229065 241.2305603 C-1.07906152 240.20387981 -1.07583239 239.17719932 -1.07250541 238.1194073 C-1.06037929 234.65687927 -1.04101712 231.1944286 -1.02172852 227.73193359 C-1.01159113 225.25876537 -1.00189688 222.78559529 -0.99261475 220.31242371 C-0.97158564 214.97638519 -0.94745565 209.64037431 -0.92053413 204.30436325 C-0.88161516 196.58932953 -0.84824376 188.87427971 -0.81623887 181.15921457 C-0.76416547 168.6429078 -0.70758755 156.12662558 -0.64819336 143.61035156 C-0.59049718 131.44987952 -0.53491222 119.28940086 -0.48217773 107.12890625 C-0.47892802 106.37969581 -0.4756783 105.63048536 -0.4723301 104.85857157 C-0.45604075 101.10011111 -0.43979302 97.34165046 -0.42356598 93.58318973 C-0.28883118 62.38876248 -0.1465161 31.19437424 0 0 Z " fill="#FEFDFE" transform="translate(178,101)"/>
<path d="M0 0 C58.08 0 116.16 0 176 0 C175.67 9.57 175.34 19.14 175 29 C117.91 28.67 60.82 28.34 2 28 C1.67 19.75 1.34 11.5 1 3 C0.67 2.01 0.34 1.02 0 0 Z " fill="#FEFDFE" transform="translate(162,369)"/>
</svg>
