<?xml version="1.0" encoding="UTF-8"?>
<svg version="1.1" xmlns="http://www.w3.org/2000/svg" width="387" height="387">
<path d="M0 0 C127.71 0 255.42 0 387 0 C387 127.71 387 255.42 387 387 C259.29 387 131.58 387 0 387 C0 259.29 0 131.58 0 0 Z " fill="#FBFBFB" transform="translate(0,0)"/>
<path d="M0 0 C1.24716797 0.01353516 2.49433594 0.02707031 3.77929688 0.04101562 C6.83248967 0.0761098 9.8847599 0.12527733 12.9375 0.1875 C13.24042969 1.43144531 13.54335937 2.67539063 13.85546875 3.95703125 C15.93412565 12.28421616 18.03072464 20.15381688 21.8671875 27.875 C23.42281109 31.23605535 24.18662748 34.56965969 24.9375 38.1875 C25.5975 38.1875 26.2575 38.1875 26.9375 38.1875 C27.205625 38.72117188 27.47375 39.25484375 27.75 39.8046875 C31.1287753 46.22880633 35.25544523 51.65971094 39.9375 57.1875 C40.57816406 57.96351563 41.21882813 58.73953125 41.87890625 59.5390625 C57.14041796 77.48290051 79.34300152 88.68167355 101.9375 94.1875 C102.89269531 94.43371094 103.84789062 94.67992187 104.83203125 94.93359375 C132.81683052 100.87472976 162.83761428 93.7839747 186.9375 79.1875 C213.69254463 61.78640414 230.13420194 36.81000434 237.9375 6.1875 C238.28354343 4.1896599 238.61914362 2.1899386 238.9375 0.1875 C243.18725959 0.06960227 247.43658905 -0.00031321 251.6875 -0.0625 C252.87472656 -0.09601563 254.06195313 -0.12953125 255.28515625 -0.1640625 C266.97258147 -0.29179392 276.53438932 1.79372997 285.09765625 10.09375 C287.6183339 12.96229186 289.25743046 15.76015813 290.9375 19.1875 C291.5975 20.1775 292.2575 21.1675 292.9375 22.1875 C299.7730281 70.03619672 293.9375 118.85301726 293.9375 167.1875 C183.0575 167.1875 72.1775 167.1875 -42.0625 167.1875 C-42.0625 22.6875 -42.0625 22.6875 -34.8125 11.8125 C-24.27097318 1.75013349 -14.2675702 -0.29581884 0 0 Z " fill="#020202" transform="translate(64.0625,129.8125)"/>
<path d="M0 0 C110.88 0 221.76 0 336 0 C336 19 336 19 334 24 C333.34 24 332.68 24 332 24 C331.6596875 24.86625 331.6596875 24.86625 331.3125 25.75 C329.1922321 29.38474497 326.38274631 31.36991337 322.58405113 33.10089397 C317.35303234 34.41316334 312.27857906 34.27838242 306.90518188 34.26069641 C305.06223496 34.26643473 305.06223496 34.26643473 303.18205678 34.27228898 C299.77910992 34.28081589 296.37637937 34.28038776 292.97343874 34.27610838 C289.30054368 34.27364076 285.62767397 34.28265579 281.95478821 34.29014587 C274.76195041 34.30289402 267.56914993 34.30468641 260.37630273 34.30234561 C254.52935115 34.30056237 248.68241089 34.30231222 242.83546066 34.30657005 C242.00319965 34.30716524 241.17093864 34.30776043 240.3134576 34.30837366 C238.62269565 34.30958541 236.93193371 34.31079955 235.24117176 34.31201603 C219.38563445 34.32289208 203.53011841 34.32072881 187.6745799 34.31463119 C173.17268695 34.30946234 158.67086117 34.3207165 144.16898151 34.33972941 C129.27518312 34.3591063 114.38141652 34.36736404 99.48760545 34.36360615 C91.12718837 34.36169384 82.76682846 34.36418462 74.40642166 34.37832069 C67.28885897 34.39023359 60.17138864 34.39164044 53.05382468 34.37953053 C49.42345415 34.37364109 45.79325258 34.37254406 42.1628933 34.38453293 C38.22477359 34.39738683 34.28690997 34.38692867 30.3487854 34.3742218 C29.20500541 34.38159609 28.06122543 34.38897037 26.88278544 34.39656812 C19.30676631 34.34509706 13.25316457 33.73561566 7.25 28.6875 C-1.30259152 18.47190457 0 15.25709754 0 0 Z " fill="#010101" transform="translate(22,308)"/>
<path d="M0 0 C1.29463826 -0.01784798 1.29463826 -0.01784798 2.61543083 -0.03605652 C4.10403366 -0.07031738 4.10403366 -0.07031738 5.62270927 -0.10527039 C6.71052193 -0.10974182 7.79833458 -0.11421326 8.91911125 -0.11882019 C10.06576759 -0.13867981 11.21242393 -0.15853943 12.39382744 -0.17900085 C16.19776238 -0.23754955 20.00102971 -0.26470675 23.80534172 -0.28678894 C26.44750299 -0.30979438 29.08966404 -0.33282533 31.73182487 -0.35588074 C36.56918074 -0.39417136 41.40639256 -0.4177533 46.24388134 -0.42986774 C53.34992754 -0.4477632 60.45288496 -0.5178032 67.5579921 -0.63387012 C73.05799847 -0.72057604 78.55714012 -0.7606972 84.05782211 -0.76603222 C87.33970231 -0.77021117 90.61803299 -0.79935546 93.89933968 -0.86531067 C115.48491267 -1.26811919 115.48491267 -1.26811919 120.34445 3.14602661 C122.76151079 5.99039331 124.27703821 9.12248573 125.79752922 12.52571106 C126.77828787 13.88340481 127.79102033 15.22007213 128.86393547 16.50617981 C129.28610344 17.04951965 129.70827141 17.5928595 130.14323235 18.15266418 C130.98855923 19.2367993 131.8349938 20.32007127 132.68229485 21.40266418 C135.79752922 25.41774648 135.79752922 25.41774648 135.79752922 26.52571106 C83.98752922 26.52571106 32.17752922 26.52571106 -21.20247078 26.52571106 C-16.70367061 18.65281077 -16.70367061 18.65281077 -14.29231453 15.70149231 C-13.77733406 15.06533997 -13.26235359 14.42918762 -12.73176765 13.77375793 C-12.20647469 13.13502747 -11.68118172 12.496297 -11.13997078 11.83821106 C-10.08610857 10.54302595 -9.0327091 9.24746417 -7.97981453 7.95149231 C-7.28746712 7.10711609 -7.28746712 7.10711609 -6.58113289 6.24568176 C-5.14189402 4.52082954 -5.14189402 4.52082954 -3.91742325 2.45332336 C-2.20247078 0.52571106 -2.20247078 0.52571106 0 0 Z " fill="#060606" transform="translate(135.20247077941895,351.4742889404297)"/>
<path d="M0 0 C11.8239137 2.36478274 19.44938747 11.8967146 26.71484375 20.88671875 C28 23 28 23 28 27 C28.66 27 29.32 27 30 27 C30.50615298 28.26839526 31.00469099 29.53983102 31.5 30.8125 C31.91765625 31.87404297 31.91765625 31.87404297 32.34375 32.95703125 C33 35 33 35 33 38 C33.66 38 34.32 38 35 38 C35.81436587 40.41605225 36.62655397 42.83279998 37.4375 45.25 C37.66759766 45.93191406 37.89769531 46.61382812 38.13476562 47.31640625 C40.13139816 53.27736714 41.12158797 57.67742544 41 64 C27.47368237 69.39613735 14.74203815 74 0 74 C0 49.58 0 25.16 0 0 Z " fill="#020202" transform="translate(195,8)"/>
<path d="M0 0 C12.91677426 1.17425221 12.91677426 1.17425221 19.375 2.75 C20.09034912 2.92047852 20.80569824 3.09095703 21.54272461 3.26660156 C28.26634064 4.93834686 34.62031934 7.29279638 41 10 C40.78583232 11.570563 40.56500931 13.14032903 40.32421875 14.70703125 C40.09560606 16.32384631 39.9151415 17.94782631 39.76953125 19.57421875 C38.73956096 28.45619788 35.20991622 35.40710232 30.99755859 43.14599609 C30.1163635 44.78373362 29.28287974 46.44694897 28.45703125 48.11328125 C23.00267078 58.91505394 14.35260063 69.20667974 3 74 C2.01 74 1.02 74 0 74 C0 49.58 0 25.16 0 0 Z " fill="#020202" transform="translate(195,142)"/>
<path d="M0 0 C0 24.09 0 48.18 0 73 C-9.01814059 73 -9.01814059 73 -12.953125 72.08203125 C-13.81462158 71.88182373 -14.67611816 71.68161621 -15.5637207 71.4753418 C-16.89342896 71.14723511 -16.89342896 71.14723511 -18.25 70.8125 C-19.16934326 70.59053955 -20.08868652 70.3685791 -21.03588867 70.13989258 C-28.01996351 68.39033786 -34.51214379 66.15661741 -41 63 C-37.7035309 42.94971148 -29.99277369 18.02658026 -13 5 C-8.55393277 2.04605414 -5.42244056 0 0 0 Z " fill="#010101" transform="translate(185,9)"/>
<path d="M0 0 C0 24.09 0 48.18 0 73 C-15.69431013 67.76856329 -23.72289009 56.16696786 -31 42 C-33.73540463 36.09352576 -35.75594398 30.00392087 -37.75 23.8125 C-38.07871094 22.82830078 -38.40742188 21.84410156 -38.74609375 20.83007812 C-39.05160156 19.88197266 -39.35710937 18.93386719 -39.671875 17.95703125 C-40.09098145 16.67276245 -40.09098145 16.67276245 -40.51855469 15.36254883 C-41.03926227 12.80733217 -40.94903267 11.41309323 -40 9 C-34.10885217 4.68818116 -26.4538784 3.21022101 -19.4375 1.6875 C-18.65906738 1.51605469 -17.88063477 1.34460938 -17.07861328 1.16796875 C-11.11083891 -0.03133278 -6.30936771 0 0 0 Z " fill="#010101" transform="translate(185,143)"/>
<path d="M0 0 C14.52 0 29.04 0 44 0 C44 17.33918338 44 17.33918338 41.6875 24.6875 C41.47416016 25.44482422 41.26082031 26.20214844 41.04101562 26.98242188 C39.88098557 30.91267295 38.67233838 33.8256754 36 37 C35.31651233 38.65989864 34.63385751 40.32016421 33.9609375 41.984375 C32.08511189 45.9190336 29.49578096 49.43806019 27 53 C23.59669298 51.54792234 21.61424875 49.71202198 19.125 47 C13.14351637 40.84875807 5.71722648 34.85861324 -2 31 C-2.08384078 26.72412002 -1.84728203 23.23641013 -1 19 C-0.67 12.73 -0.34 6.46 0 0 Z " fill="#030303" transform="translate(250,117)"/>
<path d="M0 0 C1.61588178 2.97295052 3.2154425 5.95440095 4.8125 8.9375 C5.26431641 9.76830078 5.71613281 10.59910156 6.18164062 11.45507812 C9.05440216 16.84412714 11.29591221 22.13644948 13 28 C13.31324219 29.07765625 13.62648438 30.1553125 13.94921875 31.265625 C14.19285156 32.25046875 14.43648438 33.2353125 14.6875 34.25 C14.93886719 35.22453125 15.19023437 36.1990625 15.44921875 37.203125 C16.25343241 42.74706597 16 48.39803239 16 54 C1.81 54 -12.38 54 -27 54 C-27.495 49.6275 -27.99 45.255 -28.5 40.75 C-28.65662109 39.37682617 -28.81324219 38.00365234 -28.97460938 36.58886719 C-29.09642578 35.50250977 -29.21824219 34.41615234 -29.34375 33.296875 C-29.46943359 32.18666992 -29.59511719 31.07646484 -29.72460938 29.93261719 C-30 27 -30 27 -30 23 C-28.015625 21.46484375 -28.015625 21.46484375 -25.25 19.9375 C-17.22770002 15.13863063 -10.73936892 8.88937226 -4.2734375 2.1640625 C-2 0 -2 0 0 0 Z " fill="#030303" transform="translate(278,53)"/>
<path d="M0 0 C14.52 0 29.04 0 44 0 C44.495 6.001875 44.495 6.001875 45 12.125 C45.15662109 14.00082764 45.15662109 14.00082764 45.31640625 15.91455078 C45.39761719 16.91470215 45.47882813 17.91485352 45.5625 18.9453125 C45.64628906 19.96125488 45.73007813 20.97719727 45.81640625 22.02392578 C46.19599907 28.17716572 46.19599907 28.17716572 46 31 C43.91023075 32.8888299 42.11154075 34.22863076 39.75 35.6875 C33.92070509 39.5234655 28.83499901 43.6517465 23.90917969 48.59643555 C20.94035843 51.48627653 20.36773289 52 16 52 C9.89049677 41.24514464 5.16469619 30.98517474 2 19 C1.62746094 17.75347656 1.25492187 16.50695312 0.87109375 15.22265625 C0 11 0 11 0 0 Z " fill="#020202" transform="translate(86,117)"/>
<path d="M0 0 C3.19532167 1.39444959 5.14749258 3.00879128 7.5 5.5625 C13.85140202 12.09264692 21.20834456 17.32500674 29 22 C28.34 32.23 27.68 42.46 27 53 C12.48 53 -2.04 53 -17 53 C-17 33.22575103 -10.95907563 16.24390906 0 0 Z " fill="#020202" transform="translate(103,54)"/>
<path d="M0 0 C1.58125069 2.86055605 2.31954303 5.28212539 2.80078125 8.50390625 C3.98093238 14.76249196 6.4860233 20.20188845 9.1875 25.9375 C9.64447266 26.94490234 10.10144531 27.95230469 10.57226562 28.99023438 C14.54044409 37.54851109 19.26186307 45.50562241 25 53 C4.69090632 48.31328607 -10.97494058 35.78393037 -25 21 C-20.96140116 15.11037669 -16.56502652 10.46242314 -11 6 C-10.27941406 5.41605469 -9.55882813 4.83210937 -8.81640625 4.23046875 C-3.41686183 0 -3.41686183 0 0 0 Z " fill="#030303" transform="translate(135,159)"/>
<path d="M0 0 C9.58381042 3.28094411 17.15287666 11.7997299 24 19 C15.99130766 35.85465705 -4.67684595 45.85614719 -21.14453125 52.50390625 C-23 53 -23 53 -25 52 C-24.443125 51.2471875 -23.88625 50.494375 -23.3125 49.71875 C-13.68722892 36.32141322 -7.4834352 22.56405582 -2.59863281 6.84228516 C-1.84218761 4.51433429 -0.95161576 2.25452892 0 0 Z " fill="#050505" transform="translate(246,159)"/>
<path d="M0 0 C13.80138739 3.94325354 25.97668108 10.89591964 37 20 C37.78375 20.64324219 38.5675 21.28648438 39.375 21.94921875 C43.01177461 25.03111783 46.18059724 28.1233212 49 32 C45.33425012 40.66631087 35.25697966 48.80333327 27 53 C25.515 52.505 25.515 52.505 24 52 C22.97265625 49.15625 22.97265625 49.15625 22.0625 45.5 C20.72080669 40.45972248 19.23364467 35.83682856 16.9921875 31.13671875 C15.91437117 28.81559461 15.0238622 26.45822775 14.125 24.0625 C11.18182147 16.62344245 7.02990728 10.19065512 2 4 C2 3.34 2 2.68 2 2 C1.34 2 0.68 2 0 2 C0 1.34 0 0.68 0 0 Z " fill="#060606" transform="translate(221,12)"/>
<path d="M0 0 C-0.42410156 0.43828125 -0.84820312 0.8765625 -1.28515625 1.328125 C-11.01932974 11.85386864 -16.21156063 24.26952226 -20.625 37.6875 C-20.93695313 38.62400391 -21.24890625 39.56050781 -21.5703125 40.52539062 C-22.83065344 44.33085972 -24.07290994 48.09761067 -25 52 C-28.50993519 51.38992097 -30.55458354 50.03156955 -33.3125 47.8125 C-34.09625 47.18214844 -34.88 46.55179688 -35.6875 45.90234375 C-36.450625 45.27457031 -37.21375 44.64679687 -38 44 C-38.66 43.46503906 -39.32 42.93007813 -40 42.37890625 C-43.4092973 39.55007121 -46.61372767 36.77826452 -49 33 C-48.627677 27.19176126 -42.75847779 23.12310308 -38.70361328 19.45361328 C-31.82657346 13.58575787 -8.95718304 -4.47859152 0 0 Z " fill="#010101" transform="translate(160,13)"/>
<path d="M0 0 C0.89460937 -0.03287109 1.78921875 -0.06574219 2.7109375 -0.09960938 C7.11700955 -0.13535185 10.30020067 -0.03403147 13.85546875 2.7421875 C16.25 5.4375 16.25 5.4375 16.8125 9 C16.24779494 12.45097538 15.63644019 13.9516248 13.25 16.4375 C14.4875 17.4275 14.4875 17.4275 15.75 18.4375 C18.56229334 21.81225201 19.01081408 23.26035909 18.74609375 27.50390625 C17.89533717 30.81984723 15.88942246 32.41189672 13.25 34.4375 C8.91499617 35.88250128 4.72780913 35.62181828 0.1875 35.625 C-0.73611328 35.63724609 -1.65972656 35.64949219 -2.61132812 35.66210938 C-3.49369141 35.66404297 -4.37605469 35.66597656 -5.28515625 35.66796875 C-6.093479 35.67207764 -6.90180176 35.67618652 -7.73461914 35.68041992 C-9.75 35.4375 -9.75 35.4375 -11.75 33.4375 C-12.00878906 30.39648438 -12.00878906 30.39648438 -12.015625 26.53125 C-12.01753845 25.85074585 -12.0194519 25.1702417 -12.02142334 24.46911621 C-12.02278463 23.03002554 -12.01909205 21.59092256 -12.01074219 20.15185547 C-12.00004128 17.94600913 -12.01063872 15.74097719 -12.0234375 13.53515625 C-12.02211589 12.13801903 -12.01955348 10.74088232 -12.015625 9.34375 C-12.01336914 8.06822266 -12.01111328 6.79269531 -12.00878906 5.47851562 C-11.4188501 -1.45382368 -5.49514751 0.03502573 0 0 Z " fill="#F1F1F1" transform="translate(174.75,244.5625)"/>
<path d="M0 0 C3.36983838 1.34793535 3.84039405 2.78799779 5.5 6 C6.50139564 8.57234803 7.35415542 11.18154809 8.1875 13.8125 C8.41244141 14.50537109 8.63738281 15.19824219 8.86914062 15.91210938 C9.41828909 17.60629082 9.95991862 19.30290633 10.5 21 C13.15053454 15.42984112 15.24350453 9.91736908 16.88671875 3.96875 C17.5 2 17.5 2 18.5 1 C20.49958364 0.95919217 22.50045254 0.95745644 24.5 1 C25.47204873 4.7084129 25.509557 6.94792218 24.20703125 10.546875 C23.75553711 11.8153125 23.75553711 11.8153125 23.29492188 13.109375 C22.97072266 13.98078125 22.64652344 14.8521875 22.3125 15.75 C21.85520508 17.03390625 21.85520508 17.03390625 21.38867188 18.34375 C15.86182162 33.63817838 15.86182162 33.63817838 12.5 37 C10.0625 36.9375 10.0625 36.9375 7.5 36 C4.61283361 32.08906798 3.52831219 27.90951873 2.4375 23.25 C1.86196402 20.79530438 1.22841386 18.41821606 0.5 16 C-0.16 15.67 -0.82 15.34 -1.5 15 C-1.68175781 15.68964844 -1.86351563 16.37929688 -2.05078125 17.08984375 C-6.6011236 34.1011236 -6.6011236 34.1011236 -8.5 36 C-11.375 36.375 -11.375 36.375 -14.5 36 C-17.10545508 32.47649375 -18.26876039 28.87590162 -19.4375 24.6875 C-20.58071843 20.76789394 -21.75110712 17.24736577 -23.75 13.6875 C-25.93254465 9.66477065 -25.8971942 6.52801383 -25.5 2 C-24.5 1 -24.5 1 -21.9375 0.9375 C-20.7309375 0.9684375 -20.7309375 0.9684375 -19.5 1 C-12.5 16.03045685 -12.5 16.03045685 -12.5 23 C-11.84 23 -11.18 23 -10.5 23 C-10.4175 22.113125 -10.335 21.22625 -10.25 20.3125 C-9.35021543 14.05257023 -7.96008025 6.14994402 -4.0234375 1.109375 C-2.5 0 -2.5 0 0 0 Z " fill="#ECECEC" transform="translate(98.5,244)"/>
<path d="M0 0 C1.63560804 8.17804022 1 16.66000266 1 25 C-13.85 25 -28.7 25 -44 25 C-44 20.05 -44 15.1 -44 10 C-42.06125 9.7525 -40.1225 9.505 -38.125 9.25 C-26.45957389 7.56998934 -14.55185808 5.61021372 -3.75 0.734375 C-2 0 -2 0 0 0 Z " fill="#060606" transform="translate(239,82)"/>
<path d="M0 0 C14.85 0 29.7 0 45 0 C45 4.95 45 9.9 45 15 C42.73125 15.226875 40.4625 15.45375 38.125 15.6875 C25.71580392 17.11429165 13.75222221 20.86495885 2 25 C-0.53407398 16.13074106 0 9.99076824 0 0 Z " fill="#030303" transform="translate(140,117)"/>
<path d="M0 0 C14.85 0 29.7 0 45 0 C45 14.625 45 14.625 44.5 19.8125 C44.36078125 21.30716797 44.36078125 21.30716797 44.21875 22.83203125 C44.1465625 23.54746094 44.074375 24.26289063 44 25 C40.22943956 24.39612118 36.8029374 23.24137642 33.22412109 21.93017578 C22.31972832 17.98257014 11.49102125 16.29188996 0 15 C0 10.05 0 5.1 0 0 Z " fill="#070707" transform="translate(195,117)"/>
<path d="M0 0 C1.216875 0.4125 2.43375 0.825 3.6875 1.25 C4.52152344 1.52328125 5.35554687 1.7965625 6.21484375 2.078125 C8.06857049 2.69170075 9.91520642 3.32713761 11.75390625 3.984375 C21.9466126 7.43952969 32.35565851 8.67322656 43 10 C43 14.95 43 19.9 43 25 C28.15 25 13.3 25 -2 25 C-2 7.58928571 -2 7.58928571 0 0 Z " fill="#020202" transform="translate(142,82)"/>
<path d="M0 0 C1.48294556 0.00616333 1.48294556 0.00616333 2.99584961 0.01245117 C4.06770508 0.01438477 5.13956055 0.01631836 6.24389648 0.01831055 C7.36731445 0.03055664 8.49073242 0.04280273 9.64819336 0.05541992 C11.33912109 0.05638672 11.33912109 0.05638672 13.06420898 0.05737305 C21.44556019 0.10278675 21.44556019 0.10278675 22.58569336 1.24291992 C22.71069336 3.74291992 22.71069336 3.74291992 22.58569336 6.24291992 C21.58569336 7.24291992 21.58569336 7.24291992 17.76928711 7.34057617 C16.18722654 7.33390081 14.60518177 7.32193868 13.02319336 7.30541992 C12.21688477 7.3009082 11.41057617 7.29639648 10.57983398 7.29174805 C8.5817558 7.2799251 6.58371553 7.26198906 4.58569336 7.24291992 C4.58569336 9.55291992 4.58569336 11.86291992 4.58569336 14.24291992 C6.19250977 14.22551758 6.19250977 14.22551758 7.83178711 14.20776367 C9.22892079 14.19838694 10.62605635 14.18928661 12.02319336 14.18041992 C12.73024414 14.17204102 13.43729492 14.16366211 14.16577148 14.1550293 C15.97262895 14.14638405 17.77956939 14.19071981 19.58569336 14.24291992 C20.58569336 15.24291992 20.58569336 15.24291992 20.64819336 17.80541992 C20.62756836 18.60979492 20.60694336 19.41416992 20.58569336 20.24291992 C17.58255588 21.74448866 14.79501813 21.33573197 11.46069336 21.30541992 C10.17936523 21.29639648 8.89803711 21.28737305 7.57788086 21.27807617 C6.59045898 21.26647461 5.60303711 21.25487305 4.58569336 21.24291992 C4.58569336 23.55291992 4.58569336 25.86291992 4.58569336 28.24291992 C5.78967773 28.2197168 6.99366211 28.19651367 8.23413086 28.17260742 C9.80964551 28.1538513 11.38516684 28.13565093 12.96069336 28.11791992 C13.75475586 28.10116211 14.54881836 28.0844043 15.36694336 28.06713867 C17.44061351 28.0495652 19.51452577 28.13956825 21.58569336 28.24291992 C22.24569336 28.90291992 22.90569336 29.56291992 23.58569336 30.24291992 C23.04997907 33.77863421 23.04997907 33.77863421 21.58569336 35.24291992 C17.61293521 35.49548869 13.62803161 35.42814443 9.64819336 35.43041992 C8.52477539 35.44266602 7.40135742 35.45491211 6.24389648 35.4675293 C5.17204102 35.46946289 4.10018555 35.47139648 2.99584961 35.47338867 C1.51290405 35.479552 1.51290405 35.479552 0 35.48583984 C-2.41430664 35.24291992 -2.41430664 35.24291992 -4.41430664 33.24291992 C-4.6730957 30.2019043 -4.6730957 30.2019043 -4.67993164 26.33666992 C-4.68184509 25.65616577 -4.68375854 24.97566162 -4.68572998 24.27453613 C-4.68709127 22.83544546 -4.68339869 21.39634249 -4.67504883 19.95727539 C-4.66434792 17.75142905 -4.67494536 15.54639711 -4.68774414 13.34057617 C-4.68642254 11.94343895 -4.68386012 10.54630224 -4.67993164 9.14916992 C-4.67767578 7.87364258 -4.67541992 6.59811523 -4.6730957 5.28393555 C-4.35646911 1.56327436 -3.81447183 0.38380013 0 0 Z " fill="#EDEDED" transform="translate(133.414306640625,244.757080078125)"/>
<path d="M0 0 C1.48294556 0.00616333 1.48294556 0.00616333 2.99584961 0.01245117 C4.06770508 0.01438477 5.13956055 0.01631836 6.24389648 0.01831055 C7.36731445 0.03055664 8.49073242 0.04280273 9.64819336 0.05541992 C11.33912109 0.05638672 11.33912109 0.05638672 13.06420898 0.05737305 C21.44556019 0.10278675 21.44556019 0.10278675 22.58569336 1.24291992 C22.71069336 3.74291992 22.71069336 3.74291992 22.58569336 6.24291992 C21.58569336 7.24291992 21.58569336 7.24291992 19.81982422 7.35644531 C19.07095947 7.3512085 18.32209473 7.34597168 17.55053711 7.34057617 C16.74165039 7.33735352 15.93276367 7.33413086 15.09936523 7.33081055 C14.24922852 7.32243164 13.3990918 7.31405273 12.52319336 7.30541992 C11.66918945 7.3009082 10.81518555 7.29639648 9.93530273 7.29174805 C7.81873672 7.27992366 5.70220651 7.26198761 3.58569336 7.24291992 C3.58569336 9.55291992 3.58569336 11.86291992 3.58569336 14.24291992 C8.86569336 14.24291992 14.14569336 14.24291992 19.58569336 14.24291992 C19.91569336 15.89291992 20.24569336 17.54291992 20.58569336 19.24291992 C18.58569336 21.24291992 18.58569336 21.24291992 15.10913086 21.43823242 C13.72618368 21.42493485 12.34330682 21.40108224 10.96069336 21.36791992 C9.90108398 21.35438477 9.90108398 21.35438477 8.82006836 21.34057617 C7.07513238 21.31699596 5.33037041 21.28112453 3.58569336 21.24291992 C3.58569336 23.55291992 3.58569336 25.86291992 3.58569336 28.24291992 C4.8734668 28.23131836 6.16124023 28.2197168 7.48803711 28.20776367 C9.16642108 28.19838723 10.84480662 28.18928687 12.52319336 28.18041992 C13.79839844 28.16785156 13.79839844 28.16785156 15.09936523 28.1550293 C15.90825195 28.15180664 16.71713867 28.14858398 17.55053711 28.14526367 C18.29940186 28.14002686 19.0482666 28.13479004 19.81982422 28.12939453 C21.58569336 28.24291992 21.58569336 28.24291992 22.58569336 29.24291992 C22.71069336 31.74291992 22.71069336 31.74291992 22.58569336 34.24291992 C20.05259614 36.77601714 13.05574428 35.42847164 9.64819336 35.43041992 C8.52477539 35.44266602 7.40135742 35.45491211 6.24389648 35.4675293 C5.17204102 35.46946289 4.10018555 35.47139648 2.99584961 35.47338867 C1.51290405 35.479552 1.51290405 35.479552 0 35.48583984 C-2.41430664 35.24291992 -2.41430664 35.24291992 -4.41430664 33.24291992 C-4.6730957 30.2019043 -4.6730957 30.2019043 -4.67993164 26.33666992 C-4.68184509 25.65616577 -4.68375854 24.97566162 -4.68572998 24.27453613 C-4.68709127 22.83544546 -4.68339869 21.39634249 -4.67504883 19.95727539 C-4.66434792 17.75142905 -4.67494536 15.54639711 -4.68774414 13.34057617 C-4.68642254 11.94343895 -4.68386012 10.54630224 -4.67993164 9.14916992 C-4.67767578 7.87364258 -4.67541992 6.59811523 -4.6730957 5.28393555 C-4.35646911 1.56327436 -3.81447183 0.38380013 0 0 Z " fill="#F0F0F0" transform="translate(284.414306640625,244.757080078125)"/>
<path d="M0 0 C1 1 1 1 1.125 3.5 C1 6 1 6 0 7 C-2.33333333 6.66666667 -4.66666667 6.33333333 -7 6 C-9.67412698 5.91614236 -12.32352708 5.95304433 -15 6 C-15 6.99 -15 7.98 -15 9 C-13.95199219 9.38671875 -12.90398437 9.7734375 -11.82421875 10.171875 C-10.44506482 10.69726697 -9.06617202 11.22334476 -7.6875 11.75 C-6.99720703 12.00265625 -6.30691406 12.2553125 -5.59570312 12.515625 C-1.69368207 14.02365246 1.10386049 15.15706076 3 19 C3.41340817 22.16568722 2.98802559 24.97113468 2 28 C-0.44140318 31.09730254 -3.25456393 32.75152131 -7 34 C-13.2930323 34.62930323 -17.5269867 32.77551998 -23 30 C-23.66 29.67 -24.32 29.34 -25 29 C-25.042721 27.33388095 -25.04063832 25.66617115 -25 24 C-24.67 23.67 -24.34 23.34 -24 23 C-17.60465116 23.69767442 -17.60465116 23.69767442 -15 25 C-13.45976004 25.06950541 -11.91665012 25.08452357 -10.375 25.0625 C-9.55773437 25.05347656 -8.74046875 25.04445313 -7.8984375 25.03515625 C-7.27195313 25.02355469 -6.64546875 25.01195312 -6 25 C-5.67 23.68 -5.34 22.36 -5 21 C-5.556875 20.90203125 -6.11375 20.8040625 -6.6875 20.703125 C-12.18609779 19.62569705 -17.30752567 18.16207503 -22 15 C-24.45058519 11.32412221 -24.82568312 8.27019956 -24 4 C-17.10377784 -4.81183943 -9.5613269 -4.1212616 0 0 Z " fill="#EEEEEE" transform="translate(222,247)"/>
<path d="M0 0 C1.21880859 -0.01224609 2.43761719 -0.02449219 3.69335938 -0.03710938 C5.43649414 -0.04000977 5.43649414 -0.04000977 7.21484375 -0.04296875 C8.28726318 -0.04707764 9.35968262 -0.05118652 10.46459961 -0.05541992 C13.0625 0.1875 13.0625 0.1875 15.0625 2.1875 C14.52678571 5.72321429 14.52678571 5.72321429 13.0625 7.1875 C11.54321962 7.25929964 10.02082518 7.27142007 8.5 7.25 C7.67371094 7.24097656 6.84742188 7.23195312 5.99609375 7.22265625 C5.35800781 7.21105469 4.71992188 7.19945312 4.0625 7.1875 C4.07297363 7.96464355 4.08344727 8.74178711 4.09423828 9.54248047 C4.13570282 13.049121 4.16179578 16.55571006 4.1875 20.0625 C4.20425781 21.28582031 4.22101563 22.50914062 4.23828125 23.76953125 C4.24472656 24.93613281 4.25117188 26.10273438 4.2578125 27.3046875 C4.26828613 28.38347168 4.27875977 29.46225586 4.28955078 30.57373047 C4.0625 33.1875 4.0625 33.1875 2.0625 35.1875 C0.0825 34.8575 -1.8975 34.5275 -3.9375 34.1875 C-3.9375 25.2775 -3.9375 16.3675 -3.9375 7.1875 C-6.9075 7.1875 -9.8775 7.1875 -12.9375 7.1875 C-13.9375 6.1875 -13.9375 6.1875 -14.0625 3.6875 C-13.75605459 -2.44140819 -4.67889883 0.00246647 0 0 Z " fill="#F3F3F3" transform="translate(259.9375,244.8125)"/>
<path d="M0 0 C110.55 0.33 221.1 0.66 335 1 C335 1.33 335 1.66 335 2 C225.44 2 115.88 2 3 2 C3.33 7.61 3.66 13.22 4 19 C3.34 19.99 2.68 20.98 2 22 C0 17 0 17 0 0 Z " fill="#252525" transform="translate(22,308)"/>
<path d="M0 0 C0.65830811 -0.00191345 1.31661621 -0.0038269 1.99487305 -0.00579834 C3.3868854 -0.0071595 4.77891047 -0.00346783 6.17089844 0.00488281 C8.30432589 0.015584 10.43691131 0.00498594 12.5703125 -0.0078125 C13.92187686 -0.00649089 15.2734407 -0.00392847 16.625 0 C18.47544922 0.00338379 18.47544922 0.00338379 20.36328125 0.00683594 C23.3125 0.265625 23.3125 0.265625 25.3125 2.265625 C25.5625 5.265625 25.5625 5.265625 25.3125 8.265625 C21.95393034 11.62419466 17.53785573 10.56278021 12.97460938 10.58789062 C12.30196045 10.58571533 11.62931152 10.58354004 10.9362793 10.58129883 C8.88601386 10.57814196 6.83719595 10.6015826 4.78710938 10.62695312 C3.49740234 10.62759766 2.20769531 10.62824219 0.87890625 10.62890625 C-0.30759521 10.63188721 -1.49409668 10.63486816 -2.71655273 10.63793945 C-5.6875 10.265625 -5.6875 10.265625 -7.57836914 8.90307617 C-9.14509185 6.59006513 -9.0374612 4.99532233 -8.6875 2.265625 C-5.85490425 -0.56697075 -3.9605534 0.00724239 0 0 Z " fill="#F4F4F4" transform="translate(181.6875,319.734375)"/>
<path d="M0 0 C0 24.09 0 48.18 0 73 C-7.79973149 70.4000895 -14.29161008 66.96022858 -19 60 C-15.46589508 60 -15.15118434 60.48474307 -12.6875 62.8125 C-9.48843771 65.83259377 -7.27756517 66.86121741 -3 69 C-3 46.89 -3 24.78 -3 2 C-8.445 2.495 -8.445 2.495 -14 3 C-10 0 -10 0 0 0 Z " fill="#181818" transform="translate(185,143)"/>
<path d="M0 0 C0 24.09 0 48.18 0 73 C-5.83737474 73 -9.58514873 72.85371282 -15 71.5 C-16.134375 71.2215625 -17.26875 70.943125 -18.4375 70.65625 C-19.283125 70.4396875 -20.12875 70.223125 -21 70 C-20.505 69.01 -20.505 69.01 -20 68 C-18.47897677 68.14383922 -16.95819103 68.29019014 -15.4375 68.4375 C-14.16712891 68.55931641 -14.16712891 68.55931641 -12.87109375 68.68359375 C-9.57157462 69.04721423 -6.28613229 69.53055253 -3 70 C-3 47.89 -3 25.78 -3 3 C-4.32 2.34 -5.64 1.68 -7 1 C-4 0 -4 0 0 0 Z " fill="#1A1A1A" transform="translate(185,9)"/>
<path d="M0 0 C2.5 0.125 2.5 0.125 3.5 1.125 C3.60082764 3.56160446 3.63972603 5.96924701 3.6328125 8.40625 C3.63376923 9.13493286 3.63472595 9.86361572 3.63571167 10.61437988 C3.63639335 12.1577971 3.63453988 13.70121717 3.63037109 15.24462891 C3.62502262 17.614974 3.63031642 19.98512959 3.63671875 22.35546875 C3.63605797 23.85156292 3.6347768 25.34765697 3.6328125 26.84375 C3.63483673 27.55728638 3.63686096 28.27082275 3.63894653 29.00598145 C3.61495191 34.01004809 3.61495191 34.01004809 2.5 35.125 C0 35.25 0 35.25 -2.5 35.125 C-4.20492881 33.42007119 -3.6280442 31.27965739 -3.63894653 29.00598145 C-3.6369223 28.29244507 -3.63489807 27.57890869 -3.6328125 26.84375 C-3.63376923 26.11506714 -3.63472595 25.38638428 -3.63571167 24.63562012 C-3.63639335 23.0922029 -3.63453988 21.54878283 -3.63037109 20.00537109 C-3.62502262 17.635026 -3.63031642 15.26487041 -3.63671875 12.89453125 C-3.63605797 11.39843708 -3.6347768 9.90234303 -3.6328125 8.40625 C-3.63483673 7.69271362 -3.63686096 6.97917725 -3.63894653 6.24401855 C-3.60987178 0.18049359 -3.60987178 0.18049359 0 0 Z " fill="#F8F8F8" transform="translate(235.5,244.875)"/>
<path d="M0 0 C6.90115841 0.62737804 13.07354623 1.2386866 19.6875 2.875 C20.72874023 3.11669922 20.72874023 3.11669922 21.79101562 3.36328125 C26.69583287 4.54263153 31.30505426 6.15574522 36 8 C35.67 8.66 35.34 9.32 35 10 C34.36835938 9.81824219 33.73671875 9.63648438 33.0859375 9.44921875 C22.81174639 6.56237831 12.59567108 4.32445889 2 3 C2 25.44 2 47.88 2 71 C3.98 70.505 3.98 70.505 6 70 C6.33 70.66 6.66 71.32 7 72 C4.35261084 73.4606285 3.10551666 74 0 74 C0 49.58 0 25.16 0 0 Z " fill="#353535" transform="translate(195,142)"/>
<path d="M0 0 C5 1 5 1 7 3 C5.02 3.99 5.02 3.99 3 5 C2.67 26.78 2.34 48.56 2 71 C14.50577689 69.03559882 14.50577689 69.03559882 27 67 C26.01 67.495 26.01 67.495 25 68 C25 68.66 25 69.32 25 70 C22.52393701 70.68053756 20.04519026 71.34444575 17.5625 72 C16.53092773 72.28617188 16.53092773 72.28617188 15.47851562 72.578125 C9.91996783 74.0259328 6.05595361 74 0 74 C0 49.58 0 25.16 0 0 Z " fill="#434343" transform="translate(195,8)"/>
<path d="M0 0 C14.52 0 29.04 0 44 0 C44 1.65 44 3.3 44 5 C43.34 5.33 42.68 5.66 42 6 C42 5.01 42 4.02 42 3 C29.13 3 16.26 3 3 3 C2.67 5.64 2.34 8.28 2 11 C2.33 11.33 2.66 11.66 3 12 C2.96200774 14.1480242 2.84473342 16.29490133 2.6875 18.4375 C2.60886719 19.61183594 2.53023437 20.78617188 2.44921875 21.99609375 C2 25 2 25 0 27 C-0.69748583 28.31747324 -1.36959957 29.64914193 -2 31 C-2.08384078 26.72412002 -1.84728203 23.23641013 -1 19 C-0.67 12.73 -0.34 6.46 0 0 Z " fill="#171717" transform="translate(250,117)"/>
<path d="M0 0 C1.29679687 -0.020625 2.59359375 -0.04125 3.9296875 -0.0625 C5.16976562 -0.06765625 6.40984375 -0.0728125 7.6875 -0.078125 C8.82574219 -0.0874707 9.96398437 -0.09681641 11.13671875 -0.10644531 C14 0.25 14 0.25 15.86962891 1.63574219 C17.3598379 3.7638765 17.40081389 5.16861123 17.375 7.75 C17.38660156 8.91015625 17.38660156 8.91015625 17.3984375 10.09375 C16.88464278 12.87428615 16.28040893 13.57887407 14 15.25 C10.953125 15.63818359 10.953125 15.63818359 7.25 15.6484375 C6.26821777 15.65274277 6.26821777 15.65274277 5.26660156 15.65713501 C3.88475681 15.65917368 2.50288307 15.65365746 1.12109375 15.64111328 C-0.9928445 15.62505436 -3.10487113 15.64096601 -5.21875 15.66015625 C-6.56250422 15.65817378 -7.90625724 15.65433002 -9.25 15.6484375 C-10.47203125 15.64505371 -11.6940625 15.64166992 -12.953125 15.63818359 C-16 15.25 -16 15.25 -17.88330078 13.84619141 C-19.91540707 10.94153227 -20.13081355 7.73109403 -20 4.25 C-16.02632601 -1.90919468 -6.34922552 0.02524543 0 0 Z M-18 5.25 C-18.3499612 7.97969733 -18.45759185 9.57444013 -16.89086914 11.88745117 C-14.09471928 13.90233979 -11.84919245 13.62186257 -8.43359375 13.61328125 C-7.14388672 13.61263672 -5.85417969 13.61199219 -4.52539062 13.61132812 C-3.85483643 13.60302979 -3.18428223 13.59473145 -2.4934082 13.58618164 C-0.44117112 13.56254229 1.60977033 13.56562852 3.66210938 13.57226562 C10.43339304 14.07786244 10.43339304 14.07786244 16 11.25 C16.33333333 8.25 16.33333333 8.25 16 5.25 C13.16740425 2.41740425 11.2730534 2.99161739 7.3125 2.984375 C6.65419189 2.98246155 5.99588379 2.9805481 5.31762695 2.97857666 C3.9256146 2.9772155 2.53358953 2.98090717 1.14160156 2.98925781 C-0.99182589 2.999959 -3.12441131 2.98936094 -5.2578125 2.9765625 C-6.60937686 2.97788411 -7.9609407 2.98044653 -9.3125 2.984375 C-11.16294922 2.98775879 -11.16294922 2.98775879 -13.05078125 2.99121094 C-16.12069578 2.94230233 -16.12069578 2.94230233 -18 5.25 Z " fill="#0E0E0E" transform="translate(191,316.75)"/>
<path d="M0 0 C2.04862782 0.16074045 2.04862782 0.16074045 3.79052734 -0.9855957 C6.47071145 -2.21611117 8.40963924 -2.24346806 11.3515625 -2.23046875 C12.87523437 -2.22756836 12.87523437 -2.22756836 14.4296875 -2.22460938 C15.48414063 -2.21236328 16.53859375 -2.20011719 17.625 -2.1875 C18.6871875 -2.18685547 19.749375 -2.18621094 20.84375 -2.18554688 C28.71908181 -2.1404591 28.71908181 -2.1404591 31 -1 C31 -0.34 31 0.32 31 1 C31.66 1 32.32 1 33 1 C32.67 2.98 32.34 4.96 32 7 C31.01 6.67 30.02 6.34 29 6 C29 4.35 29 2.7 29 1 C25.02084841 0.97113016 21.04172347 0.95324594 17.0625 0.9375 C15.92619141 0.92912109 14.78988281 0.92074219 13.61914062 0.91210938 C12.53955078 0.90888672 11.45996094 0.90566406 10.34765625 0.90234375 C9.34742432 0.89710693 8.34719238 0.89187012 7.31665039 0.88647461 C5.03792772 0.73818905 5.03792772 0.73818905 4 2 C3.84111908 4.28988781 3.74861927 6.58443441 3.68359375 8.87890625 C3.66281265 9.5655687 3.64203156 10.25223114 3.62062073 10.95970154 C3.55505857 13.16052935 3.49620985 15.36147975 3.4375 17.5625 C3.39432108 19.05144514 3.350707 20.54037773 3.30664062 22.02929688 C3.1993707 25.68606553 3.09812228 29.34297318 3 33 C2.34 33 1.68 33 1 33 C0.505 20.13 0.505 20.13 0 7 C-0.66 7.66 -1.32 8.32 -2 9 C-2.99 8.67 -3.98 8.34 -5 8 C-4.34 7.01 -3.68 6.02 -3 5 C-3.33 3.68 -3.66 2.36 -4 1 C-12.25 0.67 -20.5 0.34 -29 0 C-29 -0.33 -29 -0.66 -29 -1 C-25.10500293 -1.22656265 -21.2090975 -1.42804389 -17.3125 -1.625 C-16.20970703 -1.68945312 -15.10691406 -1.75390625 -13.97070312 -1.8203125 C-12.90400391 -1.871875 -11.83730469 -1.9234375 -10.73828125 -1.9765625 C-9.75899658 -2.02893066 -8.77971191 -2.08129883 -7.77075195 -2.13525391 C-4.77209641 -1.98887492 -2.72665483 -1.20486245 0 0 Z " fill="#0C0C0C" transform="translate(277,245)"/>
<path d="M0 0 C0.99 0.99 1.98 1.98 3 3 C3 7.62 3 12.24 3 17 C15.87 17 28.74 17 42 17 C42.33 16.34 42.66 15.68 43 15 C43.495 17.475 43.495 17.475 44 20 C29.81 20 15.62 20 1 20 C0.3623915 14.89913203 -0.11969716 10.53334966 -0.0625 5.5 C-0.05347656 4.4584375 -0.04445312 3.416875 -0.03515625 2.34375 C-0.02355469 1.5703125 -0.01195312 0.796875 0 0 Z " fill="#1A1A1A" transform="translate(250,87)"/>
<path d="M0 0 C1.216875 0.4125 2.43375 0.825 3.6875 1.25 C9.75757149 3.27658936 15.87841551 5.13608633 22 7 C21.67 7.66 21.34 8.32 21 9 C14.04976736 8.35346673 7.61822697 6.13972752 1 4 C1.02320313 4.68964844 1.04640625 5.37929687 1.0703125 6.08984375 C1.08835938 7.02957031 1.10640625 7.96929687 1.125 8.9375 C1.14820313 9.85402344 1.17140625 10.77054688 1.1953125 11.71484375 C1 15 1 15 -1 24 C13.19 24 27.38 24 42 24 C42 19.38 42 14.76 42 10 C42.33 10 42.66 10 43 10 C43 14.95 43 19.9 43 25 C28.15 25 13.3 25 -2 25 C-2 7.58928571 -2 7.58928571 0 0 Z " fill="#2B2B2B" transform="translate(142,82)"/>
<path d="M0 0 C15.74202434 0.06046969 31.4838669 0.13792322 47.22569847 0.23571491 C54.53456559 0.2807212 61.84338345 0.32012452 69.15234375 0.34643555 C75.52126707 0.3693767 81.89003515 0.40273075 88.25883543 0.44870156 C91.63252498 0.47268664 95.00606029 0.49138056 98.37983322 0.49761391 C102.14196657 0.50717918 105.90353211 0.53514768 109.66552734 0.56762695 C111.35190056 0.56547432 111.35190056 0.56547432 113.07234192 0.5632782 C114.60363487 0.58208542 114.60363487 0.58208542 116.16586304 0.60127258 C117.50154107 0.60818603 117.50154107 0.60818603 118.8642025 0.61523914 C119.56901567 0.74221023 120.27382885 0.86918131 121 1 C121.99 2.485 121.99 2.485 123 4 C122.01 4 121.02 4 120 4 C119.505 3.505 119.505 3.505 119 3 C117.49087856 2.90206339 115.97718535 2.87368192 114.46488953 2.87301636 C113.48483948 2.87019653 112.50478943 2.86737671 111.49504089 2.86447144 C110.41088394 2.86649567 109.32672699 2.8685199 108.2097168 2.87060547 C107.07482819 2.86885315 105.93993958 2.86710083 104.7706604 2.86529541 C100.99683123 2.86087303 97.22304845 2.86381683 93.44921875 2.8671875 C90.83706147 2.86651443 88.22490426 2.86554438 85.61274719 2.86428833 C80.12732435 2.86246642 74.64191495 2.8648727 69.15649414 2.86962891 C62.81554225 2.87506345 56.47462256 2.87331485 50.13367146 2.8678025 C44.03773172 2.8627152 37.94180623 2.86325724 31.84586525 2.86618423 C29.25066943 2.86685242 26.6554728 2.86602886 24.06027794 2.86370468 C20.43298533 2.86117012 16.80575477 2.8650306 13.1784668 2.87060547 C12.10038254 2.86858124 11.02229828 2.86655701 9.9115448 2.86447144 C8.92303528 2.86729126 7.93452576 2.87011108 6.9160614 2.87301636 C5.62934304 2.8735819 5.62934304 2.8735819 4.31663036 2.87415886 C2.08098938 2.99560059 0.1447923 3.37653141 -2 4 C-1.34 2.68 -0.68 1.36 0 0 Z " fill="#141414" transform="translate(132,353)"/>
<path d="M0 0 C14.85 0 29.7 0 45 0 C45 4.95 45 9.9 45 15 C42.23048778 15.38922874 39.4604453 15.76184952 36.6875 16.125 C35.50897461 16.29322266 35.50897461 16.29322266 34.30664062 16.46484375 C33.54931641 16.56152344 32.79199219 16.65820312 32.01171875 16.7578125 C31.31522217 16.8520752 30.61872559 16.94633789 29.90112305 17.04345703 C28 17 28 17 25 15 C30.80766296 13.4943096 35.9981863 12.78175223 42 13 C41.98839844 12.38511719 41.97679687 11.77023438 41.96484375 11.13671875 C41.95582031 10.32847656 41.94679687 9.52023438 41.9375 8.6875 C41.92589844 7.88699219 41.91429687 7.08648437 41.90234375 6.26171875 C42 4 42 4 43 1 C29.14 1 15.28 1 1 1 C1 5.95 1 10.9 1 16 C0.67 16 0.34 16 0 16 C0 10.72 0 5.44 0 0 Z " fill="#2A2A2A" transform="translate(140,117)"/>
<path d="M0 0 C3.87387722 0.04195535 7.55665644 0.48860941 11.375 1.125 C11.705 2.115 12.035 3.105 12.375 4.125 C8.71072029 5.48214063 6.86863912 4.64786834 3.375 3.125 C2.385 3.125 1.395 3.125 0.375 3.125 C1.14585937 3.36734375 1.91671875 3.6096875 2.7109375 3.859375 C3.71382812 4.19453125 4.71671875 4.5296875 5.75 4.875 C6.74773437 5.19984375 7.74546875 5.5246875 8.7734375 5.859375 C11.75770489 7.31118076 12.09796047 8.18900258 13.375 11.125 C14.365 11.455 15.355 11.785 16.375 12.125 C16.6902595 18.11493047 16.05719822 21.76060356 13.375 27.125 C12.385 26.795 11.395 26.465 10.375 26.125 C10.87 25.25875 11.365 24.3925 11.875 23.5 C13.46298946 19.92702372 13.96043148 17.97212118 13.375 14.125 C9.60463911 9.3845948 4.74699225 8.30309756 -0.82421875 6.46875 C-3.625 5.125 -3.625 5.125 -4.58203125 3.03125 C-4.59621094 2.4021875 -4.61039063 1.773125 -4.625 1.125 C-3.625 0.125 -3.625 0.125 0 0 Z " fill="#1A1A1A" transform="translate(210.625,251.875)"/>
<path d="M0 0 C0.66 0 1.32 0 2 0 C2.35740879 4.4080417 2.35740879 4.4080417 1 6.65625 C-2.16071096 8.77985268 -5.52083438 8.31239079 -9.1875 8.1875 C-10.31188477 8.16719727 -10.31188477 8.16719727 -11.45898438 8.14648438 C-13.30629767 8.11118539 -15.15324066 8.05737917 -17 8 C-17 9.32 -17 10.64 -17 12 C-12.05 11.67 -7.1 11.34 -2 11 C-1.67 11.99 -1.34 12.98 -1 14 C-0.34 14 0.32 14 1 14 C0.6875 16.875 0.6875 16.875 0 20 C-3.7367843 22.49118953 -5.74451819 22.2065226 -10.1875 22.125 C-11.45980469 22.10695313 -12.73210937 22.08890625 -14.04296875 22.0703125 C-15.01878906 22.04710937 -15.99460938 22.02390625 -17 22 C-17 23.65 -17 25.3 -17 27 C-17.33 27 -17.66 27 -18 27 C-18 24.69 -18 22.38 -18 20 C-12.72 19.67 -7.44 19.34 -2 19 C-2.33 17.35 -2.66 15.7 -3 14 C-7.95 13.67 -12.9 13.34 -18 13 C-18 10.69 -18 8.38 -18 6 C-9.585 5.505 -9.585 5.505 -1 5 C-0.67 3.35 -0.34 1.7 0 0 Z " fill="#242424" transform="translate(156,246)"/>
<path d="M0 0 C4.95 1.65 9.9 3.3 15 5 C14.67 6.65 14.34 8.3 14 10 C6.88658735 10.45164525 2.28453206 9.32797915 -4 6 C-3.67 5.34 -3.34 4.68 -3 4 C-1.68 4 -0.36 4 1 4 C0.67 2.68 0.34 1.36 0 0 Z " fill="#0F0F0F" transform="translate(202,263)"/>
<path d="M0 0 C0.33 0.99 0.66 1.98 1 3 C0.25556641 3.63615234 0.25556641 3.63615234 -0.50390625 4.28515625 C-9.22198582 11.06282744 -9.22198582 11.06282744 -15 20 C-14.4225 20.226875 -13.845 20.45375 -13.25 20.6875 C-10.4336339 22.33038023 -8.91922886 24.39533227 -7 27 C-7.33 27.66 -7.66 28.32 -8 29 C-11.80775061 25.97110747 -15.34545328 23.14109288 -18 19 C-17.8154364 14.72735261 -14.7038348 12.29609979 -11.8125 9.5 C-11.34263672 9.02691406 -10.87277344 8.55382813 -10.38867188 8.06640625 C-7.14926755 4.87561508 -3.82713457 2.4040075 0 0 Z " fill="#0C0C0C" transform="translate(129,27)"/>
<path d="M0 0 C2.14576637 -0.02685938 4.29162645 -0.04633088 6.4375 -0.0625 C7.63246094 -0.07410156 8.82742187 -0.08570313 10.05859375 -0.09765625 C13 0 13 0 14 1 C14.04063832 2.66617115 14.042721 4.33388095 14 6 C11.23547967 7.38226016 8.9538637 7.09525387 5.875 7.0625 C4.77929688 7.05347656 3.68359375 7.04445313 2.5546875 7.03515625 C1.29011719 7.01775391 1.29011719 7.01775391 0 7 C0 4.69 0 2.38 0 0 Z " fill="#101010" transform="translate(171,266)"/>
<path d="M0 0 C0.99 0 1.98 0 3 0 C3.05794812 4.27077656 3.09357874 8.54145236 3.125 12.8125 C3.14175781 14.02744141 3.15851563 15.24238281 3.17578125 16.49414062 C3.18222656 17.65751953 3.18867188 18.82089844 3.1953125 20.01953125 C3.20578613 21.09307861 3.21625977 22.16662598 3.22705078 23.27270508 C3 26 3 26 1 29 C0.01 28.67 -0.98 28.34 -2 28 C-1.67 27.34 -1.34 26.68 -1 26 C-0.84621148 24.04225931 -0.75028537 22.07982648 -0.68359375 20.1171875 C-0.62075195 18.36728516 -0.62075195 18.36728516 -0.55664062 16.58203125 C-0.51732422 15.35871094 -0.47800781 14.13539063 -0.4375 12.875 C-0.39431641 11.64394531 -0.35113281 10.41289062 -0.30664062 9.14453125 C-0.20031296 6.09647147 -0.09828219 3.0483281 0 0 Z " fill="#101010" transform="translate(264,252)"/>
<path d="M0 0 C1.68319336 0.02707031 1.68319336 0.02707031 3.40039062 0.0546875 C6.16363447 0.10172144 8.92512698 0.16743683 11.6875 0.25 C11.6875 0.91 11.6875 1.57 11.6875 2.25 C10.96570557 2.27505615 10.24391113 2.3001123 9.50024414 2.32592773 C6.249965 2.44151302 3.00000312 2.56440774 -0.25 2.6875 C-1.38630859 2.72681641 -2.52261719 2.76613281 -3.69335938 2.80664062 C-5.31274414 2.86948242 -5.31274414 2.86948242 -6.96484375 2.93359375 C-7.96507568 2.97025146 -8.96530762 3.00690918 -9.99584961 3.04467773 C-12.27319188 2.99671841 -12.27319188 2.99671841 -13.3125 4.25 C-13.35313832 5.91617115 -13.355221 7.58388095 -13.3125 9.25 C-10.3425 9.58 -7.3725 9.91 -4.3125 10.25 C-4.3125 10.58 -4.3125 10.91 -4.3125 11.25 C-5.93574086 11.47162329 -7.561221 11.67689803 -9.1875 11.875 C-10.09242188 11.99101562 -10.99734375 12.10703125 -11.9296875 12.2265625 C-12.71601563 12.23429688 -13.50234375 12.24203125 -14.3125 12.25 C-16.8779594 9.6845406 -16.85296087 7.77313332 -17.3125 4.25 C-12.52626413 -1.23850524 -6.69863518 -0.20358213 0 0 Z " fill="#121212" transform="translate(260.3125,241.75)"/>
<path d="M0 0 C1.81242052 -0.02687279 3.62495233 -0.04633715 5.4375 -0.0625 C6.44683594 -0.07410156 7.45617187 -0.08570313 8.49609375 -0.09765625 C11 0 11 0 12 1 C12.04063832 2.66617115 12.042721 4.33388095 12 6 C9.47524538 7.26237731 7.68799534 7.09856404 4.875 7.0625 C3.96492187 7.05347656 3.05484375 7.04445313 2.1171875 7.03515625 C1.41851562 7.02355469 0.71984375 7.01195312 0 7 C0 4.69 0 2.38 0 0 Z " fill="#151515" transform="translate(171,252)"/>
<path d="M0 0 C0.33 0.99 0.66 1.98 1 3 C0.57589844 3.39791748 0.15179688 3.79583496 -0.28515625 4.20581055 C-2.20318189 6.01976749 -4.10149394 7.85313266 -6 9.6875 C-6.66773437 10.31333984 -7.33546875 10.93917969 -8.0234375 11.58398438 C-8.97089844 12.50727539 -8.97089844 12.50727539 -9.9375 13.44921875 C-10.81728516 14.28972778 -10.81728516 14.28972778 -11.71484375 15.1472168 C-13.37497521 17.54059401 -13.23946139 19.14998181 -13 22 C-14.65 20.35 -16.3 18.7 -18 17 C-12.65671903 10.45448081 -6.79794974 5.01537626 0 0 Z " fill="#171717" transform="translate(128,162)"/>
<path d="M0 0 C3.93260944 -0.07421454 7.86494722 -0.12863136 11.7980957 -0.16479492 C13.79327701 -0.18728333 15.78826213 -0.22540198 17.78320312 -0.26367188 C19.03681641 -0.27333984 20.29042969 -0.28300781 21.58203125 -0.29296875 C22.73936768 -0.3086792 23.8967041 -0.32438965 25.08911133 -0.34057617 C28 0 28 0 29.8762207 1.38134766 C31.365489 3.52643756 31.40064125 4.96846011 31.375 7.5625 C31.38273437 8.34753906 31.39046875 9.13257813 31.3984375 9.94140625 C31.20121094 10.96041016 31.20121094 10.96041016 31 12 C30.01 12.66 29.02 13.32 28 14 C28.08378906 13.36191406 28.16757813 12.72382813 28.25390625 12.06640625 C28.35574219 11.24011719 28.45757812 10.41382813 28.5625 9.5625 C28.66691406 8.73878906 28.77132812 7.91507812 28.87890625 7.06640625 C28.91886719 6.38449219 28.95882812 5.70257813 29 5 C27.16780354 3.16780354 24.24286259 3.76098672 21.77734375 3.68359375 C19.88725586 3.62075195 19.88725586 3.62075195 17.95898438 3.55664062 C16.61849264 3.51682404 15.2779978 3.47711186 13.9375 3.4375 C12.59308477 3.39431958 11.2486834 3.35070544 9.90429688 3.30664062 C6.6029766 3.20014642 3.30157764 3.0981354 0 3 C0 2.01 0 1.02 0 0 Z " fill="#434343" transform="translate(177,317)"/>
<path d="M0 0 C6.24362752 -0.40885965 11.2801813 1.07285121 17.1875 3 C18.95020713 3.56754312 20.71448392 4.13023957 22.48046875 4.6875 C23.25285889 4.93886719 24.02524902 5.19023437 24.82104492 5.44921875 C27.27175629 6.1633768 27.27175629 6.1633768 31 6 C30.67 7.32 30.34 8.64 30 10 C29.44054687 9.82984375 28.88109375 9.6596875 28.3046875 9.484375 C25.53876122 8.64837156 22.76982627 7.82299457 20 7 C18.83339844 6.65195313 17.66679687 6.30390625 16.46484375 5.9453125 C15.25957031 5.59210938 14.05429688 5.23890625 12.8125 4.875 C11.68457031 4.54242188 10.55664062 4.20984375 9.39453125 3.8671875 C5.93794786 2.98414779 2.53787494 2.4405486 -1 2 C-0.67 1.34 -0.34 0.68 0 0 Z " fill="#0F0F0F" transform="translate(206,131)"/>
<path d="M0 0 C14.52 0 29.04 0 44 0 C44 2.64 44 5.28 44 8 C43.01 7.67 42.02 7.34 41 7 C41 5.35 41 3.7 41 2 C21.2 1.505 21.2 1.505 1 1 C1 4.3 1 7.6 1 11 C0.67 11 0.34 11 0 11 C0 7.37 0 3.74 0 0 Z " fill="#414141" transform="translate(86,117)"/>
<path d="M0 0 C2 2 2 2 2.13525391 5.16455078 C2.09292823 6.50851258 2.0392693 7.85214734 1.9765625 9.1953125 C1.95153656 9.90275604 1.92651062 10.61019958 1.90072632 11.33908081 C1.8184671 13.60153719 1.7219031 15.86312806 1.625 18.125 C1.56676631 19.65751658 1.5094629 21.19006881 1.453125 22.72265625 C1.31288005 26.4822698 1.15980243 30.241169 1 34 C0.34 34 -0.32 34 -1 34 C-1.19217298 29.47975725 -1.37090744 24.95926059 -1.53710938 20.43798828 C-1.59557259 18.89943132 -1.65773085 17.3610102 -1.72363281 15.82275391 C-1.81762837 13.61385835 -1.89840086 11.40481787 -1.9765625 9.1953125 C-2.00875885 8.50567413 -2.0409552 7.81603577 -2.0741272 7.10549927 C-2.12770248 5.40433023 -2.0726782 3.70046002 -2 2 C-1.34 1.34 -0.68 0.68 0 0 Z " fill="#3C3C3C" transform="translate(231,244)"/>
<path d="M0 0 C0.33 0 0.66 0 1 0 C1 2.64 1 5.28 1 8 C14.2 8 27.4 8 41 8 C41 6.35 41 4.7 41 3 C41.99 2.01 42.98 1.02 44 0 C44 2.97 44 5.94 44 9 C29.48 9 14.96 9 0 9 C0 6.03 0 3.06 0 0 Z " fill="#343434" transform="translate(86,98)"/>
<path d="M0 0 C0.66 0.33 1.32 0.66 2 1 C1.7215625 1.67933594 1.443125 2.35867187 1.15625 3.05859375 C-0.61641726 7.56811552 -2.18050874 12.14980698 -3.78125 16.72265625 C-4.72731369 19.26671854 -5.7161324 21.61652357 -7 24 C-7.66 24 -8.32 24 -9 24 C-9.33 24.99 -9.66 25.98 -10 27 C-8.6809304 17.47660742 -5.19951845 8.08813981 0 0 Z " fill="#353535" transform="translate(99,60)"/>
<path d="M0 0 C0.99 0.33 1.98 0.66 3 1 C2 3 2 3 -1.5703125 4.2890625 C-3.08606849 4.74272186 -4.60445707 5.1876532 -6.125 5.625 C-6.87265625 5.85445313 -7.6203125 6.08390625 -8.390625 6.3203125 C-13.02035039 7.67535408 -17.12790071 8.43390197 -22 8 C-22.66 7.34 -23.32 6.68 -24 6 C-23.34402832 5.85377197 -22.68805664 5.70754395 -22.01220703 5.55688477 C-19.04919382 4.89478972 -16.08709377 4.22869581 -13.125 3.5625 C-12.09246094 3.33240234 -11.05992187 3.10230469 -9.99609375 2.86523438 C-9.00996094 2.64287109 -8.02382812 2.42050781 -7.0078125 2.19140625 C-6.09660645 1.98717041 -5.18540039 1.78293457 -4.24658203 1.57250977 C-1.98446798 1.0807716 -1.98446798 1.0807716 0 0 Z " fill="#1D1D1D" transform="translate(229,85)"/>
<path d="M0 0 C3.93673644 1.31224548 6.22719294 2.91910327 9 6 C6.69 5.67 4.38 5.34 2 5 C1.72285156 5.69867188 1.44570312 6.39734375 1.16015625 7.1171875 C0.79792969 8.02726563 0.43570313 8.93734375 0.0625 9.875 C-0.29714844 10.77992188 -0.65679687 11.68484375 -1.02734375 12.6171875 C-2 15 -2 15 -3 17 C-3.66 17 -4.32 17 -5 17 C-4.35841048 14.35307023 -3.71195217 11.70750071 -3.0625 9.0625 C-2.88009766 8.30775391 -2.69769531 7.55300781 -2.50976562 6.77539062 C-1.11328125 1.11328125 -1.11328125 1.11328125 0 0 Z " fill="#1D1D1D" transform="translate(246,159)"/>
<path d="M0 0 C0.33 0 0.66 0 1 0 C1.06058594 0.78246094 1.12117187 1.56492187 1.18359375 2.37109375 C1.26738281 3.38300781 1.35117188 4.39492187 1.4375 5.4375 C1.55931641 6.95150391 1.55931641 6.95150391 1.68359375 8.49609375 C1.73211468 10.93640779 1.73211468 10.93640779 3 12 C2.96200774 14.1480242 2.84473342 16.29490133 2.6875 18.4375 C2.60886719 19.61183594 2.53023437 20.78617188 2.44921875 21.99609375 C2 25 2 25 0 27 C-0.69748583 28.31747324 -1.36959957 29.64914193 -2 31 C-2.12605042 24.57142857 -2.12605042 24.57142857 -1.53125 21.875 C-0.75383085 17.66779046 -0.63167759 13.4562237 -0.4375 9.1875 C-0.37272461 7.86202148 -0.37272461 7.86202148 -0.30664062 6.50976562 C-0.20108464 4.34000377 -0.10008929 2.1700209 0 0 Z " fill="#323232" transform="translate(250,117)"/>
<path d="M0 0 C0.99 0.33 1.98 0.66 3 1 C3 1.66 3 2.32 3 3 C3.66 3 4.32 3 5 3 C4.6875 5.875 4.6875 5.875 4 9 C0.2632157 11.49118953 -1.74451819 11.2065226 -6.1875 11.125 C-7.45980469 11.10695313 -8.73210937 11.08890625 -10.04296875 11.0703125 C-11.50669922 11.03550781 -11.50669922 11.03550781 -13 11 C-13 12.65 -13 14.3 -13 16 C-13.33 16 -13.66 16 -14 16 C-14 13.69 -14 11.38 -14 9 C-6.08 8.505 -6.08 8.505 2 8 C1.50847518 3.13867505 1.50847518 3.13867505 -1 1 C-0.67 0.67 -0.34 0.34 0 0 Z " fill="#161616" transform="translate(152,257)"/>
<path d="M0 0 C0.80050781 0.30236572 0.80050781 0.30236572 1.6171875 0.61083984 C4.07643717 1.53678138 6.53817825 2.45591988 9 3.375 C10.25876953 3.85066406 10.25876953 3.85066406 11.54296875 4.3359375 C16.65034877 6.23635797 21.68742288 7.78253441 27 9 C27 9.66 27 10.32 27 11 C16.6979782 10.20753678 7.26891478 6.40039389 -2 2 C-1.34 1.34 -0.68 0.68 0 0 Z " fill="#131313" transform="translate(139,215)"/>
<path d="M0 0 C0.33 0.66 0.66 1.32 1 2 C-1.52049393 2.79276039 -4.04138014 3.58423465 -6.5625 4.375 C-7.26697266 4.59671875 -7.97144531 4.8184375 -8.69726562 5.046875 C-13.11441687 6.43105143 -17.54385543 7.74689233 -22 9 C-22 7.35 -22 5.7 -22 4 C-21.236875 4.0825 -20.47375 4.165 -19.6875 4.25 C-15.24001576 3.94847564 -11.78526902 2.55057798 -7.68359375 0.875 C-4.94855521 -0.01677385 -2.85440782 -0.16517369 0 0 Z " fill="#121212" transform="translate(164,133)"/>
<path d="M0 0 C4 1 4 1 5 2 C5.08783542 4.21855264 5.10694609 6.43988496 5.09765625 8.66015625 C5.0962413 9.32462265 5.09482635 9.98908905 5.09336853 10.6736908 C5.08775518 12.80333899 5.07520054 14.93288339 5.0625 17.0625 C5.05748671 18.50325369 5.05292351 19.94400903 5.04882812 21.38476562 C5.03778145 24.92321102 5.02050792 28.46159539 5 32 C4.67 32 4.34 32 4 32 C3.67 24.08 3.34 16.16 3 8 C2.01 8 1.02 8 0 8 C-0.33 8.99 -0.66 9.98 -1 11 C-0.67 7.37 -0.34 3.74 0 0 Z " fill="#161616" transform="translate(123,245)"/>
<path d="M0 0 C5.46737191 1.74807129 10.75824848 3.65794081 16 6 C15.34 6.66 14.68 7.32 14 8 C12.02 7.34 10.04 6.68 8 6 C8.33 7.98 8.66 9.96 9 12 C6.4000702 9.48972295 4.00908773 7.0136316 2 4 C2 3.34 2 2.68 2 2 C1.34 2 0.68 2 0 2 C0 1.34 0 0.68 0 0 Z " fill="#191919" transform="translate(221,12)"/>
<path d="M0 0 C4.23063609 0.56715049 6.96422479 2.02112718 10.5 4.375 C14.57403598 7.06608797 14.57403598 7.06608797 18.78125 9.5390625 C21 11 21 11 22 14 C13.99165118 10.99330676 6.7841025 6.16181712 0 1 C0 0.67 0 0.34 0 0 Z " fill="#222222" transform="translate(123,192)"/>
<path d="M0 0 C2.56825576 0.9121736 3.84648775 1.45188129 5.421875 3.6953125 C6.25 5.625 6.25 5.625 7.1875 8.9375 C6.1975 9.2675 5.2075 9.5975 4.1875 9.9375 C4.1875 9.174375 4.1875 8.41125 4.1875 7.625 C3.38114042 4.52985932 3.38114042 4.52985932 -0.375 3.125 C-3.4022931 2.14317521 -6.01204968 1.80533747 -9.1875 1.875 C-10.981875 1.9059375 -10.981875 1.9059375 -12.8125 1.9375 C-13.4725 1.2775 -14.1325 0.6175 -14.8125 -0.0625 C-10.27680367 -2.33034817 -4.73219572 -1.26037239 0 0 Z " fill="#141414" transform="translate(218.8125,243.0625)"/>
<path d="M0 0 C1.27230469 0.00902344 2.54460937 0.01804688 3.85546875 0.02734375 C5.31919922 0.04474609 5.31919922 0.04474609 6.8125 0.0625 C6.8125 1.0525 6.8125 2.0425 6.8125 3.0625 C4.20840255 3.23031295 1.6042318 3.39679651 -1 3.5625 C-2.10698242 3.63404297 -2.10698242 3.63404297 -3.23632812 3.70703125 C-6.22574588 3.89640613 -9.19124574 4.0625 -12.1875 4.0625 C-8.93601091 -0.81473363 -5.49420143 -0.05040552 0 0 Z " fill="#1E1E1E" transform="translate(174.1875,241.9375)"/>
<path d="M0 0 C2 3 2 3 1.76806641 4.90112305 C1.54812012 5.59761963 1.32817383 6.29411621 1.1015625 7.01171875 C0.75351563 8.14770508 0.75351563 8.14770508 0.3984375 9.30664062 C0.14320313 10.09232422 -0.11203125 10.87800781 -0.375 11.6875 C-0.6225 12.48478516 -0.87 13.28207031 -1.125 14.10351562 C-1.73816955 16.07273321 -2.36755921 18.0368868 -3 20 C-5.86724686 19.42655063 -6.8614515 19.1385485 -9 17 C-7.68 17 -6.36 17 -5 17 C-4.70996094 15.66195312 -4.70996094 15.66195312 -4.4140625 14.296875 C-4.15367187 13.12640625 -3.89328125 11.9559375 -3.625 10.75 C-3.36976563 9.58984375 -3.11453125 8.4296875 -2.8515625 7.234375 C-2.14203595 4.53947599 -1.36903611 2.40474168 0 0 Z " fill="#191919" transform="translate(138,45)"/>
<path d="M0 0 C-0.33 2.64 -0.66 5.28 -1 8 C-2.32 8.33 -3.64 8.66 -5 9 C-4.4740625 8.13375 -4.4740625 8.13375 -3.9375 7.25 C-2.63716826 4.75979645 -2.63716826 4.75979645 -4 1 C-12.25 0.67 -20.5 0.34 -29 0 C-29 -0.33 -29 -0.66 -29 -1 C-25.10500293 -1.22656265 -21.2090975 -1.42804389 -17.3125 -1.625 C-16.20970703 -1.68945312 -15.10691406 -1.75390625 -13.97070312 -1.8203125 C-12.90400391 -1.871875 -11.83730469 -1.9234375 -10.73828125 -1.9765625 C-9.75899658 -2.02893066 -8.77971191 -2.08129883 -7.77075195 -2.13525391 C-4.78179277 -1.98934824 -2.69532989 -1.26054534 0 0 Z " fill="#383838" transform="translate(277,245)"/>
<path d="M0 0 C0.33 0 0.66 0 1 0 C1 1.65 1 3.3 1 5 C0.34 5.33 -0.32 5.66 -1 6 C-1 5.01 -1 4.02 -1 3 C-14.2 3 -27.4 3 -41 3 C-41 2.67 -41 2.34 -41 2 C-39.79351807 1.97494385 -38.58703613 1.9498877 -37.34399414 1.92407227 C-32.88424339 1.83017477 -28.42465487 1.72991167 -23.96508789 1.62768555 C-22.03185815 1.58426959 -20.09858841 1.54259958 -18.1652832 1.50268555 C-15.39261798 1.44514369 -12.62015543 1.3814038 -9.84765625 1.31640625 C-8.97786636 1.29969376 -8.10807648 1.28298126 -7.21192932 1.26576233 C-3.28884034 1.54973787 -3.28884034 1.54973787 0 0 Z " fill="#0C0C0C" transform="translate(239,117)"/>
<path d="M0 0 C-8.37461115 2.90409903 -16.12994977 4.68035855 -25 5 C-19.80577527 2.34786407 -14.42793029 0.78763893 -8.8125 -0.75 C-7.78769531 -1.03359375 -6.76289063 -1.3171875 -5.70703125 -1.609375 C-3 -2 -3 -2 0 0 Z " fill="#151515" transform="translate(229,223)"/>
<path d="M0 0 C7.59 0.33 15.18 0.66 23 1 C23 1.33 23 1.66 23 2 C15.74 2 8.48 2 1 2 C1 5.63 1 9.26 1 13 C0.01 13.33 -0.98 13.66 -2 14 C-1.43254837 9.2982579 -0.7795919 4.67755138 0 0 Z " fill="#2A2A2A" transform="translate(303,130)"/>
<path d="M0 0 C0.83848804 1.45537568 1.67063934 2.91440373 2.5 4.375 C2.9640625 5.18710937 3.428125 5.99921875 3.90625 6.8359375 C5 9 5 9 5 11 C4.01 11 3.02 11 2 11 C0.68 8.36 -0.64 5.72 -2 3 C-4.31 5.31 -6.62 7.62 -9 10 C-9.66 9.67 -10.32 9.34 -11 9 C-9.54782324 7.49403892 -8.08807139 5.99537896 -6.625 4.5 C-5.40683594 3.24703125 -5.40683594 3.24703125 -4.1640625 1.96875 C-2 0 -2 0 0 0 Z " fill="#424242" transform="translate(278,53)"/>
<path d="M0 0 C0.99 0.33 1.98 0.66 3 1 C3.73046875 3.06640625 3.73046875 3.06640625 4.1875 5.5625 C4.34605469 6.38878906 4.50460938 7.21507812 4.66796875 8.06640625 C4.77753906 8.70449219 4.88710937 9.34257812 5 10 C4.01 10 3.02 10 2 10 C2 9.34 2 8.68 2 8 C0.68 8.33 -0.64 8.66 -2 9 C-1.125 2.25 -1.125 2.25 0 0 Z " fill="#363636" transform="translate(97,259)"/>
<path d="M0 0 C2.64 0.33 5.28 0.66 8 1 C8 1.33 8 1.66 8 2 C16.25 2.33 24.5 2.66 33 3 C33 3.33 33 3.66 33 4 C28.4583875 4.05823729 23.9168716 4.09367675 19.375 4.125 C17.44720703 4.15013672 17.44720703 4.15013672 15.48046875 4.17578125 C14.23652344 4.18222656 12.99257812 4.18867188 11.7109375 4.1953125 C10.56931152 4.20578613 9.42768555 4.21625977 8.25146484 4.22705078 C4.86433183 3.99052625 2.15994958 3.2095701 -1 2 C-0.67 1.34 -0.34 0.68 0 0 Z " fill="#1D1D1D" transform="translate(170,225)"/>
<path d="M0 0 C6.62522639 4.03977219 12.39752589 9.00696202 16 16 C13 16 13 16 10.87890625 13.91796875 C9.73228516 12.56638672 9.73228516 12.56638672 8.5625 11.1875 C5.41691952 7.47527574 5.41691952 7.47527574 1.71484375 4.36328125 C1.14894531 3.91339844 0.58304688 3.46351562 0 3 C0 2.01 0 1.02 0 0 Z " fill="#151515" transform="translate(203,11)"/>
<path d="M0 0 C0 0.99 0 1.98 0 3 C-1.65 3.66 -3.3 4.32 -5 5 C-5 8.96 -5 12.92 -5 17 C-6.5994614 13.80107719 -7.42595236 11.64537424 -8.125 8.25 C-8.29257813 7.45078125 -8.46015625 6.6515625 -8.6328125 5.828125 C-8.75398437 5.22484375 -8.87515625 4.6215625 -9 4 C-2.25 0 -2.25 0 0 0 Z " fill="#1C1C1C" transform="translate(153,149)"/>
<path d="M0 0 C0 0.66 0 1.32 0 2 C0.66 2 1.32 2 2 2 C1.67 3.98 1.34 5.96 1 8 C0.01 7.67 -0.98 7.34 -2 7 C-2 5.35 -2 3.7 -2 2 C-9.26 1.67 -16.52 1.34 -24 1 C-24 0.67 -24 0.34 -24 0 C-20.75052139 -0.19738568 -17.50041127 -0.3811754 -14.25 -0.5625 C-13.32960938 -0.61857422 -12.40921875 -0.67464844 -11.4609375 -0.73242188 C-10.57148438 -0.78076172 -9.68203125 -0.82910156 -8.765625 -0.87890625 C-7.94868164 -0.9260376 -7.13173828 -0.97316895 -6.29003906 -1.02172852 C-4.02117925 -1.00020095 -2.16679079 -0.64612135 0 0 Z " fill="#323232" transform="translate(308,244)"/>
<path d="M0 0 C2.38696582 2.96312998 4.72548277 5.94993105 7 9 C-3.55808656 5.92482916 -3.55808656 5.92482916 -8 4 C-7.67 3.34 -7.34 2.68 -7 2 C-4.03 2.495 -4.03 2.495 -1 3 C-0.67 2.01 -0.34 1.02 0 0 Z " fill="#2A2A2A" transform="translate(153,203)"/>
<path d="M0 0 C4.24644725 3.35765597 7.56928684 6.7775838 11 11 C12.62944672 12.71002375 14.30526619 14.35368715 16 16 C9.45737194 14.86341873 4.71632061 9.26111373 1 4.0625 C0.34 3.051875 -0.32 2.04125 -1 1 C-0.67 0.67 -0.34 0.34 0 0 Z " fill="#212121" transform="translate(101,185)"/>
<path d="M0 0 C1.20568053 4.67201205 1.09382426 9.21496292 1 14 C0.01 14 -0.98 14 -2 14 C-2.33 10.7 -2.66 7.4 -3 4 C-4.32 3.67 -5.64 3.34 -7 3 C-4.74624683 0.74624683 -3.20799182 0 0 0 Z " fill="#343434" transform="translate(239,82)"/>
<path d="M0 0 C0.33 0 0.66 0 1 0 C1 1.98 1 3.96 1 6 C2.13179688 5.90460938 3.26359375 5.80921875 4.4296875 5.7109375 C5.91141612 5.59840115 7.39318945 5.48645242 8.875 5.375 C9.62136719 5.31054688 10.36773437 5.24609375 11.13671875 5.1796875 C13.0870047 5.03912635 15.04469467 5.01240151 17 5 C19 7 19 7 19.125 9.625 C19.08375 10.40875 19.0425 11.1925 19 12 C17.02 12.99 17.02 12.99 15 14 C15.33 12.02 15.66 10.04 16 8 C10.72 7.67 5.44 7.34 0 7 C0 4.69 0 2.38 0 0 Z " fill="#333333" transform="translate(288,252)"/>
<path d="M0 0 C0.4846875 0.37511719 0.969375 0.75023437 1.46875 1.13671875 C6.1555558 4.71491472 10.94671516 7.96265326 16 11 C15.67 11.66 15.34 12.32 15 13 C8.43186037 10.94745637 2.90421514 6.60169999 -1 1 C-0.67 0.67 -0.34 0.34 0 0 Z " fill="#1D1D1D" transform="translate(167,202)"/>
<path d="M0 0 C0.99 0.33 1.98 0.66 3 1 C0.03 5.455 0.03 5.455 -3 10 C-7.0084034 7.9957983 -8.41409657 6.50944037 -11 3 C-8.03824877 3.61277612 -6.61941217 4.25372522 -4 6 C-2.68 4.02 -1.36 2.04 0 0 Z " fill="#232323" transform="translate(280,160)"/>
<path d="M0 0 C4.8763934 0.43052843 6.96986995 2.48592497 10.3125 5.9375 C11.19550781 6.83339844 12.07851563 7.72929687 12.98828125 8.65234375 C15 11 15 11 15 13 C12 13 12 13 10.3515625 11.42578125 C9.78179687 10.72839844 9.21203125 10.03101563 8.625 9.3125 C5.88002899 6.03135631 3.06965705 2.97663714 0 0 Z " fill="#252525" transform="translate(255,167)"/>
<path d="M0 0 C0.33 0.99 0.66 1.98 1 3 C-0.24034412 4.32162881 -1.49268626 5.63200453 -2.75 6.9375 C-3.44609375 7.66839844 -4.1421875 8.39929688 -4.859375 9.15234375 C-7.00599725 11.00517646 -8.23532932 11.60771565 -11 12 C-8.47295673 6.78797325 -4.38226641 3.6119868 0 0 Z " fill="#212121" transform="translate(174,13)"/>
<path d="M0 0 C0.66 0 1.32 0 2 0 C2.22162857 2.77035709 2.42779249 5.54038995 2.625 8.3125 C2.68945312 9.09818359 2.75390625 9.88386719 2.8203125 10.69335938 C2.871875 11.45068359 2.9234375 12.20800781 2.9765625 12.98828125 C3.02893066 13.68477783 3.08129883 14.38127441 3.13525391 15.09887695 C3 17 3 17 1 20 C-0.1482685 17.703463 -0.11561175 16.41686833 -0.09765625 13.8671875 C-0.09443359 13.06152344 -0.09121094 12.25585938 -0.08789062 11.42578125 C-0.07951172 10.58402344 -0.07113281 9.74226563 -0.0625 8.875 C-0.05798828 8.02550781 -0.05347656 7.17601562 -0.04882812 6.30078125 C-0.03702874 4.20049091 -0.01909306 2.1002367 0 0 Z " fill="#171717" transform="translate(23,310)"/>
<path d="M0 0 C1.98 0.495 1.98 0.495 4 1 C4.94396421 3.98496791 5.75232831 6.87179891 6 10 C4.125 12.5625 4.125 12.5625 2 14 C1.01 13.67 0.02 13.34 -1 13 C-0.34 12.01 0.32 11.02 1 10 C1.39958487 6.57982443 1.5635348 3.12706959 0 0 Z " fill="#1E1E1E" transform="translate(191,264)"/>
<path d="M0 0 C0.99 0 1.98 0 3 0 C3 10.23 3 20.46 3 31 C2.67 31 2.34 31 2 31 C1.67 22.42 1.34 13.84 1 5 C0.67 5 0.34 5 0 5 C0 3.35 0 1.7 0 0 Z " fill="#131313" transform="translate(276,247)"/>
<path d="M0 0 C-1.98 2.31 -3.96 4.62 -6 7 C-6.99 6.34 -7.98 5.68 -9 5 C-11.11280345 4.36707617 -11.11280345 4.36707617 -13 4 C-10.56272708 2.37515139 -8.62713877 1.34310925 -5.9375 0.3125 C-5.24527344 0.04050781 -4.55304688 -0.23148438 -3.83984375 -0.51171875 C-2 -1 -2 -1 0 0 Z " fill="#232323" transform="translate(160,13)"/>
<path d="M0 0 C1.0828125 0.37125 1.0828125 0.37125 2.1875 0.75 C1.8575 1.74 1.5275 2.73 1.1875 3.75 C-0.4625 3.75 -2.1125 3.75 -3.8125 3.75 C-4.1425 5.4 -4.4725 7.05 -4.8125 8.75 C-5.8025 8.75 -6.7925 8.75 -7.8125 8.75 C-8.125 6.5 -8.125 6.5 -7.8125 3.75 C-5.17968173 0.89151159 -3.95233493 -0.35131866 0 0 Z " fill="#262626" transform="translate(77.8125,242.25)"/>
<path d="M0 0 C0.33 0.99 0.66 1.98 1 3 C0.319375 3.66 -0.36125 4.32 -1.0625 5 C-4.56725347 8.49468234 -7.77221788 12.25130779 -11 16 C-11.99 15.67 -12.98 15.34 -14 15 C-12.73542969 13.75283203 -12.73542969 13.75283203 -11.4453125 12.48046875 C-10.33840925 11.38294603 -9.2316457 10.28528241 -8.125 9.1875 C-7.56941406 8.64029297 -7.01382812 8.09308594 -6.44140625 7.52929688 C-5.90644531 6.99755859 -5.37148438 6.46582031 -4.8203125 5.91796875 C-4.32805176 5.43094482 -3.83579102 4.9439209 -3.32861328 4.44213867 C-1.77411511 2.82996499 -1.77411511 2.82996499 0 0 Z " fill="#232323" transform="translate(279,184)"/>
<path d="M0 0 C1.0169313 2.65498232 1.13022151 3.69155375 0.00390625 6.359375 C-0.47175781 7.14828125 -0.94742187 7.9371875 -1.4375 8.75 C-1.91058594 9.54921875 -2.38367188 10.3484375 -2.87109375 11.171875 C-3.24363281 11.77515625 -3.61617187 12.3784375 -4 13 C-4.66 13 -5.32 13 -6 13 C-5.49890261 7.73847744 -3.79035827 3.79035827 0 0 Z " fill="#262626" transform="translate(30,142)"/>
<path d="M0 0 C2.80561393 1.40280696 3.00680507 3.0509005 4.125 5.9375 C4.47820312 6.83339844 4.83140625 7.72929687 5.1953125 8.65234375 C6 11 6 11 6 13 C5.01 13 4.02 13 3 13 C-0.56416465 4.94188862 -0.56416465 4.94188862 -1 2 C-0.67 1.34 -0.34 0.68 0 0 Z " fill="#383838" transform="translate(140,178)"/>
<path d="M0 0 C0.66 0 1.32 0 2 0 C0.45454854 5.47932789 -2.15543212 10.11429181 -5 15 C-5.66 15 -6.32 15 -7 15 C-6.31238981 11.34435091 -4.74550455 8.48132728 -2.9375 5.25 C-2.11572266 3.77273437 -2.11572266 3.77273437 -1.27734375 2.265625 C-0.64505859 1.14414063 -0.64505859 1.14414063 0 0 Z " fill="#111111" transform="translate(224,183)"/>
<path d="M0 0 C8.25 0 16.5 0 25 0 C25 0.66 25 1.32 25 2 C25.99 2.33 26.98 2.66 28 3 C26.00045254 3.04254356 23.99958364 3.04080783 22 3 C21.67 2.67 21.34 2.34 21 2 C19.44051458 1.84313751 17.87457332 1.74923361 16.30859375 1.68359375 C15.36435547 1.64169922 14.42011719 1.59980469 13.44726562 1.55664062 C12.45404297 1.51732422 11.46082031 1.47800781 10.4375 1.4375 C9.44041016 1.39431641 8.44332031 1.35113281 7.41601562 1.30664062 C4.9441585 1.20019702 2.4721969 1.09818072 0 1 C0 0.67 0 0.34 0 0 Z " fill="#080808" transform="translate(305,130)"/>
<path d="M0 0 C0.33 0 0.66 0 1 0 C1.34375 2.7578125 1.34375 2.7578125 1 6 C-1.40625 8.1171875 -1.40625 8.1171875 -4.5 9.875 C-6.03140625 10.76832031 -6.03140625 10.76832031 -7.59375 11.6796875 C-8.3878125 12.11539063 -9.181875 12.55109375 -10 13 C-10 12.01 -10 11.02 -10 10 C-8.3203125 8.7890625 -8.3203125 8.7890625 -6.125 7.625 C-3.16693275 5.90555808 -2.15294468 5.28677127 -0.5 2.1875 C-0.335 1.465625 -0.17 0.74375 0 0 Z " fill="#202020" transform="translate(131,142)"/>
<path d="M0 0 C2.28814723 2.28814723 2.75451161 3.80751622 3.6875 6.875 C3.95949219 7.73867188 4.23148438 8.60234375 4.51171875 9.4921875 C5.01692938 12.08694932 4.85561171 13.530785 4 16 C3.34 16 2.68 16 2 16 C2.0928125 14.3603125 2.0928125 14.3603125 2.1875 12.6875 C2.41643529 9.06732786 2.41643529 9.06732786 0.4375 7.4375 C-0.036875 6.963125 -0.51125 6.48875 -1 6 C-0.6875 2.8125 -0.6875 2.8125 0 0 Z " fill="#494949" transform="translate(230,49)"/>
<path d="M0 0 C4.2742558 1.5830577 6.26531794 4.50568404 9 8 C5.08087178 8 3.95856266 6.4275386 1 4 C0.34 4 -0.32 4 -1 4 C-1 4.66 -1 5.32 -1 6 C-1.66 6 -2.32 6 -3 6 C-1.125 1.125 -1.125 1.125 0 0 Z " fill="#232323" transform="translate(103,54)"/>
<path d="M0 0 C4.78478822 -0.09764874 9.27685687 0.22887459 14 1 C14.33 1.99 14.66 2.98 15 4 C11.21180727 5.43410153 8.93478721 4.51009497 5.25 3.0625 C3.77273437 2.49208984 3.77273437 2.49208984 2.265625 1.91015625 C1.51796875 1.60980469 0.7703125 1.30945313 0 1 C0 0.67 0 0.34 0 0 Z " fill="#111111" transform="translate(208,252)"/>
<path d="M0 0 C0.33 0 0.66 0 1 0 C1 9.57 1 19.14 1 29 C0.01 28.67 -0.98 28.34 -2 28 C-1.67 27.34 -1.34 26.68 -1 26 C-0.84621148 24.04225931 -0.75028537 22.07982648 -0.68359375 20.1171875 C-0.62075195 18.36728516 -0.62075195 18.36728516 -0.55664062 16.58203125 C-0.51732422 15.35871094 -0.47800781 14.13539063 -0.4375 12.875 C-0.39431641 11.64394531 -0.35113281 10.41289062 -0.30664062 9.14453125 C-0.20031296 6.09647147 -0.09828219 3.0483281 0 0 Z " fill="#3D3D3D" transform="translate(264,252)"/>
<path d="M0 0 C5.36891879 0.49869404 10.69235173 1.02227532 16 2 C16 2.33 16 2.66 16 3 C9.77104914 4.13253652 5.08251096 3.70366626 -1 2 C-0.67 1.34 -0.34 0.68 0 0 Z " fill="#1B1B1B" transform="translate(165,77)"/>
<path d="M0 0 C0.33 0 0.66 0 1 0 C1 2.31 1 4.62 1 7 C-2.63 8.32 -6.26 9.64 -10 11 C-10.66 10.34 -11.32 9.68 -12 9 C-10.3767313 8.3291288 -8.75132422 7.66342971 -7.125 7 C-6.22007812 6.62875 -5.31515625 6.2575 -4.3828125 5.875 C-2 5 -2 5 0 5 C0 3.35 0 1.7 0 0 Z " fill="#212121" transform="translate(235,65)"/>
<path d="M0 0 C0.66 0.33 1.32 0.66 2 1 C1.50269348 5.97306516 0.44697666 9.63799813 -2 14 C-2.66 14 -3.32 14 -4 14 C-3.71572583 12.41532272 -3.42225182 10.8322943 -3.125 9.25 C-2.96257812 8.36828125 -2.80015625 7.4865625 -2.6328125 6.578125 C-2.03203736 4.13052256 -1.22002883 2.19400143 0 0 Z " fill="#2F2F2F" transform="translate(151,46)"/>
<path d="M0 0 C0.66 0 1.32 0 2 0 C0.52278578 3.45201639 -1.43794001 5.64961936 -4.125 8.25 C-4.84945313 8.95640625 -5.57390625 9.6628125 -6.3203125 10.390625 C-6.87460937 10.92171875 -7.42890625 11.4528125 -8 12 C-8.66 11.34 -9.32 10.68 -10 10 C-8.71451591 8.66070495 -7.42141845 7.32871357 -6.125 6 C-5.04605469 4.88625 -5.04605469 4.88625 -3.9453125 3.75 C-2 2 -2 2 0 2 C0 1.34 0 0.68 0 0 Z " fill="#232323" transform="translate(268,44)"/>
<path d="M0 0 C0.33 0.99 0.66 1.98 1 3 C3.01508358 3.73323796 3.01508358 3.73323796 5 4 C4.34 6.31 3.68 8.62 3 11 C2.34 11 1.68 11 1 11 C0.63890458 9.35567294 0.28629924 7.7094792 -0.0625 6.0625 C-0.25972656 5.14597656 -0.45695312 4.22945313 -0.66015625 3.28515625 C-0.77230469 2.53105469 -0.88445312 1.77695312 -1 1 C-0.67 0.67 -0.34 0.34 0 0 Z " fill="#212121" transform="translate(85,256)"/>
<path d="M0 0 C3.04049801 3.64859761 4.96518762 7.7444533 7 12 C4.59094729 11.61962326 3.33204778 11.37991053 1.69921875 9.51171875 C-1.05581084 4.54415574 -1.05581084 4.54415574 -0.75 1.5625 C-0.5025 1.046875 -0.255 0.53125 0 0 Z " fill="#373737" transform="translate(146,191)"/>
<path d="M0 0 C-9.41002278 3.62870159 -9.41002278 3.62870159 -14 2 C-11.88506863 -0.11493137 -10.93588683 -0.50750159 -8.125 -1.25 C-7.44695312 -1.44078125 -6.76890625 -1.6315625 -6.0703125 -1.828125 C-3.49048562 -2.04229931 -2.18691012 -1.31410743 0 0 Z " fill="#1D1D1D" transform="translate(168,147)"/>
<path d="M0 0 C0.95465783 2.16967689 1.14401212 3.56328793 0.3984375 5.82421875 C-0.35870385 7.5684743 -1.17609198 9.28627131 -2 11 C-2.99 11 -3.98 11 -5 11 C-4.34 8.36 -3.68 5.72 -3 3 C-2.01 3 -1.02 3 0 3 C0 2.01 0 1.02 0 0 Z " fill="#414141" transform="translate(290,140)"/>
<path d="M0 0 C0.99 0 1.98 0 3 0 C2.54803755 1.60597325 2.08817673 3.20972508 1.625 4.8125 C1.36976562 5.70582031 1.11453125 6.59914063 0.8515625 7.51953125 C0 10 0 10 -2 13 C-3.71050559 8.02398374 -2.00885647 4.57383705 0 0 Z " fill="#1F1F1F" transform="translate(111,254)"/>
<path d="M0 0 C0.66 0.99 1.32 1.98 2 3 C1.34 3 0.68 3 0 3 C-0.0825 3.763125 -0.165 4.52625 -0.25 5.3125 C-1.14615794 8.52373261 -2.21611025 9.29374499 -5 11 C-5.66 10.67 -6.32 10.34 -7 10 C-3.535 5.05 -3.535 5.05 0 0 Z " fill="#282828" transform="translate(287,173)"/>
<path d="M0 0 C2 2 2 2 2.046875 5.00390625 C1.89992187 6.76541016 1.89992187 6.76541016 1.75 8.5625 C1.61851562 10.32787109 1.61851562 10.32787109 1.484375 12.12890625 C1.32453125 13.07636719 1.1646875 14.02382812 1 15 C0.01 15.495 0.01 15.495 -1 16 C-1.09688221 10.55306686 -1.12862175 5.36095333 0 0 Z " fill="#0E0E0E" transform="translate(129,81)"/>
<path d="M0 0 C-0.66 0 -1.32 0 -2 0 C-2 0.66 -2 1.32 -2 2 C-6.84241633 3.33583899 -10.93437617 4.25328119 -16 4 C-13.58069291 1.58069291 -11.84292782 1.20557796 -8.5625 0.3125 C-7.11037109 -0.09548828 -7.11037109 -0.09548828 -5.62890625 -0.51171875 C-3 -1 -3 -1 0 0 Z " fill="#0E0E0E" transform="translate(222,76)"/>
<path d="M0 0 C3.36329858 0.57987906 4.6723487 1.57924265 7 4 C7.886875 4.515625 8.77375 5.03125 9.6875 5.5625 C10.450625 6.036875 11.21375 6.51125 12 7 C12 7.66 12 8.32 12 9 C7.00544191 7.72232235 4.38702189 5.87088216 1 2 C0.67 1.34 0.34 0.68 0 0 Z " fill="#202020" transform="translate(26,332)"/>
<path d="M0 0 C0.91848119 2.75544358 1.08426974 4.24473058 1 7.0625 C0.70651608 10.78571015 0.70651608 10.78571015 2 13 C0.68 12.67 -0.64 12.34 -2 12 C-2.05395478 10.37536158 -2.09277195 8.75021459 -2.125 7.125 C-2.14820313 6.22007812 -2.17140625 5.31515625 -2.1953125 4.3828125 C-2 2 -2 2 0 0 Z " fill="#101010" transform="translate(198,248)"/>
<path d="M0 0 C1.98 0.495 1.98 0.495 4 1 C3.67 3.31 3.34 5.62 3 8 C2.01 8 1.02 8 0 8 C-0.33 8.99 -0.66 9.98 -1 11 C-0.67 7.37 -0.34 3.74 0 0 Z " fill="#272727" transform="translate(123,245)"/>
<path d="M0 0 C1.79068573 2.6860286 2.66055791 4.6626589 3.625 7.6875 C3.88539062 8.49574219 4.14578125 9.30398437 4.4140625 10.13671875 C4.60742188 10.75160156 4.80078125 11.36648437 5 12 C4.01 12 3.02 12 2 12 C1.87625 11.21625 1.7525 10.4325 1.625 9.625 C1.20882007 6.85942178 1.20882007 6.85942178 -1 5 C-0.625 2.375 -0.625 2.375 0 0 Z " fill="#303030" transform="translate(80,146)"/>
<path d="M0 0 C3.3 0.33 6.6 0.66 10 1 C9.67 2.32 9.34 3.64 9 5 C5.7 4.01 2.4 3.02 -1 2 C-0.67 1.34 -0.34 0.68 0 0 Z " fill="#242424" transform="translate(227,136)"/>
<path d="M0 0 C5.01113235 1.4317521 6.94469549 3.98445693 10 8 C9.67 8.66 9.34 9.32 9 10 C5.06451569 6.93906776 2.31883213 4.50884026 0 0 Z " fill="#2A2A2A" transform="translate(112,46)"/>
<path d="M0 0 C0.33 0 0.66 0 1 0 C1.33292585 4.24480464 1.43885872 6.35542625 -1 9.9375 C-1.66 10.618125 -2.32 11.29875 -3 12 C-4.21386936 8.35839192 -3.6674695 7.66834531 -2.0625 4.3125 C-1.49208984 3.10013672 -1.49208984 3.10013672 -0.91015625 1.86328125 C-0.60980469 1.24839844 -0.30945313 0.63351563 0 0 Z " fill="#2A2A2A" transform="translate(237,184)"/>
<path d="M0 0 C0.99 0.33 1.98 0.66 3 1 C0.69 3.31 -1.62 5.62 -4 8 C-4.99 7.67 -5.98 7.34 -7 7 C-7.33 6.01 -7.66 5.02 -8 4 C-6.68 4 -5.36 4 -4 4 C-1.74934898 2.08333079 -1.74934898 2.08333079 0 0 Z " fill="#1C1C1C" transform="translate(109,162)"/>
<path d="M0 0 C2.97 0.99 5.94 1.98 9 3 C9 3.66 9 4.32 9 5 C8.01 5 7.02 5 6 5 C5.67 5.99 5.34 6.98 5 8 C2 4.25 2 4.25 2 2 C1.34 2 0.68 2 0 2 C0 1.34 0 0.68 0 0 Z " fill="#303030" transform="translate(221,12)"/>
<path d="M0 0 C0.5625 1.9375 0.5625 1.9375 1 4 C0 5 0 5 -2.06640625 5.09765625 C-2.89011719 5.08605469 -3.71382812 5.07445312 -4.5625 5.0625 C-5.38878906 5.05347656 -6.21507812 5.04445313 -7.06640625 5.03515625 C-7.70449219 5.02355469 -8.34257812 5.01195312 -9 5 C-8.67 4.34 -8.34 3.68 -8 3 C-6.02 3 -4.04 3 -2 3 C-2 2.34 -2 1.68 -2 1 C-1.34 0.67 -0.68 0.34 0 0 Z " fill="#262626" transform="translate(216,268)"/>
<path d="M0 0 C0.66 0.33 1.32 0.66 2 1 C1.36771484 1.65355469 1.36771484 1.65355469 0.72265625 2.3203125 C-2.76365195 6.11013459 -4.73880963 8.64559734 -5 14 C-5.33 14 -5.66 14 -6 14 C-6.61514196 6.74132492 -6.61514196 6.74132492 -3.5625 3.0625 C-2.716875 2.381875 -1.87125 1.70125 -1 1 C-0.67 0.67 -0.34 0.34 0 0 Z " fill="#B5B5B5" transform="translate(204,245)"/>
<path d="M0 0 C0.33 0.99 0.66 1.98 1 3 C-4.14285714 7.42857143 -4.14285714 7.42857143 -8 8 C-8.33 7.34 -8.66 6.68 -9 6 C-6.03 4.02 -3.06 2.04 0 0 Z " fill="#222222" transform="translate(261,202)"/>
<path d="M0 0 C-4.455 3.465 -4.455 3.465 -9 7 C-9.33 6.01 -9.66 5.02 -10 4 C-4.5 -1.125 -4.5 -1.125 0 0 Z " fill="#232323" transform="translate(259,57)"/>
<path d="M0 0 C0.33 0.99 0.66 1.98 1 3 C-4.078125 6.22265625 -4.078125 6.22265625 -6 7 C-7.32 6.67 -8.64 6.34 -10 6 C-6.7 4.02 -3.4 2.04 0 0 Z " fill="#202020" transform="translate(140,20)"/>
<path d="M0 0 C0.66 0 1.32 0 2 0 C0.50902342 3.7952131 -1.75700849 5.61042731 -5 8 C-5.99 7.34 -6.98 6.68 -8 6 C-7.05125 5.38125 -6.1025 4.7625 -5.125 4.125 C-2.05554891 2.18029031 -2.05554891 2.18029031 0 0 Z " fill="#232323" transform="translate(352,332)"/>
<path d="M0 0 C2.6486859 3.19668988 4.93992341 6.39486597 7 10 C6.01 10 5.02 10 4 10 C2.578125 8.57421875 2.578125 8.57421875 1.25 6.6875 C0.80140625 6.07261719 0.3528125 5.45773438 -0.109375 4.82421875 C-1 3 -1 3 0 0 Z " fill="#252525" transform="translate(93,173)"/>
<path d="M0 0 C1.12377697 3.30435084 0.89554742 5.0506862 -0.4375 8.25 C-0.72496094 8.95640625 -1.01242188 9.6628125 -1.30859375 10.390625 C-1.53675781 10.92171875 -1.76492187 11.4528125 -2 12 C-3.52491998 8.95016004 -3.23562548 6.3576631 -3 3 C-1.5 1.0625 -1.5 1.0625 0 0 Z " fill="#5D5D5D" transform="translate(233,163)"/>
<path d="M0 0 C3.3 0.99 6.6 1.98 10 3 C8.02 3.99 8.02 3.99 6 5 C2.25 3.625 2.25 3.625 -1 2 C-0.67 1.34 -0.34 0.68 0 0 Z " fill="#262626" transform="translate(150,72)"/>
<path d="M0 0 C0.6875 1.625 0.6875 1.625 1 4 C-0.4375 7.25 -0.4375 7.25 -2 10 C-2.99 10 -3.98 10 -5 10 C-3.66511872 6.40608886 -2.03977277 3.24509304 0 0 Z " fill="#262626" transform="translate(162,25)"/>
<path d="M0 0 C0.99 0 1.98 0 3 0 C1.14285714 7.57142857 1.14285714 7.57142857 -2 10 C-3.39195915 5.82412255 -1.82323219 3.86525224 0 0 Z " fill="#1A1A1A" transform="translate(144,30)"/>
<path d="M0 0 C0.99 0.66 1.98 1.32 3 2 C1.9375 3.5 1.9375 3.5 0 5 C-3.5625 5.375 -3.5625 5.375 -7 5 C-7.66 4.01 -8.32 3.02 -9 2 C-6.36 2 -3.72 2 -1 2 C-0.67 1.34 -0.34 0.68 0 0 Z " fill="#1C1C1C" transform="translate(239,277)"/>
<path d="M0 0 C0.66 0 1.32 0 2 0 C1.82374165 2.37948772 1.30280227 3.70225849 -0.40234375 5.37890625 C-1.90649092 6.62115486 -3.45129851 7.81376056 -5 9 C-5 4.68381834 -2.86729652 3.07210341 0 0 Z " fill="#313131" transform="translate(116,172)"/>
<path d="M0 0 C2.64 0.33 5.28 0.66 8 1 C7.67 1.66 7.34 2.32 7 3 C4.6859378 3.73075648 2.35171131 4.40138258 0 5 C0 3.35 0 1.7 0 0 Z " fill="#1A1A1A" transform="translate(142,137)"/>
<path d="M0 0 C0.99 0.33 1.98 0.66 3 1 C3.33 3.31 3.66 5.62 4 8 C3.01 8 2.02 8 1 8 C0.67 5.36 0.34 2.72 0 0 Z " fill="#323232" transform="translate(288,80)"/>
<path d="M0 0 C0.99 0 1.98 0 3 0 C2.25 5.75 2.25 5.75 0 8 C-0.66 7.34 -1.32 6.68 -2 6 C-1.34 4.02 -0.68 2.04 0 0 Z " fill="#313131" transform="translate(355,324)"/>
<path d="M0 0 C0.66 0.33 1.32 0.66 2 1 C1.67 1.99 1.34 2.98 1 4 C-1.31 4.33 -3.62 4.66 -6 5 C-5.67 4.01 -5.34 3.02 -5 2 C-3 1.375 -3 1.375 -1 1 C-0.67 0.67 -0.34 0.34 0 0 Z " fill="#1A1A1A" transform="translate(113,278)"/>
<path d="M0 0 C0.99 0.33 1.98 0.66 3 1 C2.67 2.98 2.34 4.96 2 7 C1.01 6.67 0.02 6.34 -1 6 C-0.67 4.02 -0.34 2.04 0 0 Z " fill="#3F3F3F" transform="translate(97,259)"/>
<path d="M0 0 C0.99 0.33 1.98 0.66 3 1 C4.1577506 4.47325181 4.06866652 7.36067448 4 11 C1.54176828 7.31265242 0.98757384 4.30300029 0 0 Z " fill="#232323" transform="translate(104,251)"/>
<path d="M0 0 C2.64 0.33 5.28 0.66 8 1 C8.33 1.99 8.66 2.98 9 4 C6.03 3.67 3.06 3.34 0 3 C0 2.01 0 1.02 0 0 Z " fill="#101010" transform="translate(170,225)"/>
<path d="M0 0 C2.97 1.65 5.94 3.3 9 5 C8.34 5.66 7.68 6.32 7 7 C3.535 5.02 3.535 5.02 0 3 C0 2.01 0 1.02 0 0 Z " fill="#1A1A1A" transform="translate(127,208)"/>
<path d="M0 0 C3.67420866 0.30618405 4.78135513 0.75771784 7.3125 3.5625 C8.1478125 4.7690625 8.1478125 4.7690625 9 6 C4.58763974 6 3.21615077 3.9302707 0 1 C0 0.67 0 0.34 0 0 Z " fill="#242424" transform="translate(261,156)"/>
<path d="M0 0 C1.9375 0.5 1.9375 0.5 4 2 C4.68790422 4.69658452 4.81946464 7.2017019 5 10 C2.35534962 6.8745041 1.15585285 3.91211733 0 0 Z " fill="#1F1F1F" transform="translate(95,154)"/>
<path d="M0 0 C0.99 0.33 1.98 0.66 3 1 C4.47666292 4.49029418 4.07164685 8.27436386 4 12 C1.78600697 8.20458337 0.99019802 4.24370579 0 0 Z " fill="#3C3C3C" transform="translate(144,154)"/>
<path d="M0 0 C1.125 1.6875 1.125 1.6875 2 4 C1.125 6.75 1.125 6.75 0 9 C-0.66 9 -1.32 9 -2 9 C-1.125 2.25 -1.125 2.25 0 0 Z " fill="#383838" transform="translate(300,144)"/>
<path d="M0 0 C4.19360449 0.67097672 7.40334352 2.8558394 11 5 C9.234375 5.6484375 9.234375 5.6484375 7 6 C5.078125 5.0390625 5.078125 5.0390625 3.25 3.625 C2.63640625 3.16351563 2.0228125 2.70203125 1.390625 2.2265625 C0.93171875 1.82179688 0.4728125 1.41703125 0 1 C0 0.67 0 0.34 0 0 Z " fill="#1C1C1C" transform="translate(120,70)"/>
<path d="M0 0 C0.99 0 1.98 0 3 0 C2.01 3.3 1.02 6.6 0 10 C-0.33 10 -0.66 10 -1 10 C-1.125 2.25 -1.125 2.25 0 0 Z " fill="#1B1B1B" transform="translate(94,70)"/>
<path d="M0 0 C0.33 0.99 0.66 1.98 1 3 C-1.64 5.31 -4.28 7.62 -7 10 C-7.66 9.67 -8.32 9.34 -9 9 C-6.03 6.03 -3.06 3.06 0 0 Z " fill="#232323" transform="translate(121,33)"/>
<path d="M0 0 C1 3 1 3 0.22265625 4.82421875 C-0.8515625 6.54947917 -1.92578125 8.27473958 -3 10 C-3.66 9.67 -4.32 9.34 -5 9 C-3.7508258 5.54074837 -2.32472205 2.85306797 0 0 Z " fill="#131313" transform="translate(151,20)"/>
<path d="M0 0 C-2.68841859 2.25245881 -4.64641875 3.88213958 -8 5 C-8 4.01 -8 3.02 -8 2 C-3.71900826 -1.23966942 -3.71900826 -1.23966942 0 0 Z " fill="#191919" transform="translate(246,200)"/>
<path d="M0 0 C0.99 0.33 1.98 0.66 3 1 C4.125 7.75 4.125 7.75 3 10 C2.49596232 8.70990357 1.99690074 7.41786211 1.5 6.125 C1.2215625 5.40570313 0.943125 4.68640625 0.65625 3.9453125 C0 2 0 2 0 0 Z " fill="#2E2E2E" transform="translate(150,173)"/>
<path d="M0 0 C0.66 0 1.32 0 2 0 C3.35439668 2.70879335 3.06501451 5.00933268 3 8 C2.01 8.495 2.01 8.495 1 9 C0.67 6.03 0.34 3.06 0 0 Z " fill="#202020" transform="translate(88,131)"/>
<path d="M0 0 C2.76223278 2.76223278 2.57856291 5.20706617 3 9 C2.01 9.495 2.01 9.495 1 10 C-1.125 3.375 -1.125 3.375 0 0 Z " fill="#2F2F2F" transform="translate(286,70)"/>
<path d="M0 0 C0.99 0.33 1.98 0.66 3 1 C4.07009208 3.82115184 4 5.90544541 4 9 C4.66 9.33 5.32 9.66 6 10 C5.01 10 4.02 10 3 10 C2.01 6.7 1.02 3.4 0 0 Z " fill="#303030" transform="translate(234,31)"/>
<path d="M0 0 C1.485 0.99 1.485 0.99 3 2 C3.3984375 4.09375 3.3984375 4.09375 3.375 6.5 C3.38273438 7.2940625 3.39046875 8.088125 3.3984375 8.90625 C3.26695312 9.5971875 3.13546875 10.288125 3 11 C2.01 11.66 1.02 12.32 0 13 C0.08378906 12.39671875 0.16757813 11.7934375 0.25390625 11.171875 C0.35574219 10.37265625 0.45757812 9.5734375 0.5625 8.75 C0.66691406 7.96109375 0.77132812 7.1721875 0.87890625 6.359375 C1.00027349 3.99467126 0.69633257 2.2488963 0 0 Z " fill="#303030" transform="translate(205,318)"/>
<path d="M0 0 C0.66 0 1.32 0 2 0 C5 5.75 5 5.75 5 8 C4.01 8 3.02 8 2 8 C1.34 5.36 0.68 2.72 0 0 Z " fill="#171717" transform="translate(71,252)"/>
<path d="M0 0 C2.89932357 2.39509338 3.50168276 4.31245243 4 8 C3.01 8.495 3.01 8.495 2 9 C0.4375 6.1875 0.4375 6.1875 -1 3 C-0.67 2.01 -0.34 1.02 0 0 Z " fill="#212121" transform="translate(155,182)"/>
<path d="M0 0 C0.33 0.99 0.66 1.98 1 3 C-1.97 5.475 -1.97 5.475 -5 8 C-5 5 -5 5 -2.5 2.3125 C-1.675 1.549375 -0.85 0.78625 0 0 Z " fill="#323232" transform="translate(266,181)"/>
<path d="M0 0 C0.99 0.495 0.99 0.495 2 1 C2.484375 2.77734375 2.484375 2.77734375 2.75 4.9375 C2.84796875 5.64777344 2.9459375 6.35804688 3.046875 7.08984375 C3 9 3 9 1 11 C0.30710631 7.27569643 -0.11144596 3.78916254 0 0 Z " fill="#323232" transform="translate(135,162)"/>
<path d="M0 0 C2 3 2 3 1.75 5.4375 C1.05282249 7.81952314 0.20252143 9.83546142 -1 12 C-1.08159574 7.83861737 -0.98248524 4.0527516 0 0 Z " fill="#484848" transform="translate(249,136)"/>
<path d="M0 0 C0 0.99 0 1.98 0 3 C-2.31 3.66 -4.62 4.32 -7 5 C-7.33 4.34 -7.66 3.68 -8 3 C-2.25 0 -2.25 0 0 0 Z " fill="#232323" transform="translate(45,132)"/>
<path d="M0 0 C0.66 0 1.32 0 2 0 C2 2.64 2 5.28 2 8 C1.01 7.67 0.02 7.34 -1 7 C-0.67 4.69 -0.34 2.38 0 0 Z " fill="#252525" transform="translate(128,117)"/>
<path d="M0 0 C0.33 0 0.66 0 1 0 C1 2.97 1 5.94 1 9 C0.01 8.67 -0.98 8.34 -2 8 C-2.20086443 4.28400809 -2.1519437 3.22791555 0 0 Z " fill="#262626" transform="translate(129,98)"/>
<path d="M0 0 C0.33 0.99 0.66 1.98 1 3 C-0.75 4.5625 -0.75 4.5625 -3 6 C-4.32 5.67 -5.64 5.34 -7 5 C-4.69 3.35 -2.38 1.7 0 0 Z " fill="#282828" transform="translate(129,27)"/>
<path d="M0 0 C0.66 0 1.32 0 2 0 C1.67 1.98 1.34 3.96 1 6 C-0.32 6 -1.64 6 -3 6 C-2.01 4.02 -1.02 2.04 0 0 Z " fill="#242424" transform="translate(224,272)"/>
<path d="M0 0 C3 2 3 2 3.6875 4.125 C3.790625 4.74375 3.89375 5.3625 4 6 C1.525 5.01 1.525 5.01 -1 4 C-0.67 2.68 -0.34 1.36 0 0 Z " fill="#252525" transform="translate(207,252)"/>
<path d="M0 0 C2.6875 -0.3125 2.6875 -0.3125 5 0 C4.67 0.99 4.34 1.98 4 3 C0.4375 4.1875 0.4375 4.1875 -3 5 C-1.8125 2.5 -1.8125 2.5 0 0 Z " fill="#232323" transform="translate(224,207)"/>
<path d="M0 0 C0.99 0 1.98 0 3 0 C4.16552619 4.19589427 4.08954032 4.82091936 2 9 C1.34 6.03 0.68 3.06 0 0 Z " fill="#212121" transform="translate(90,140)"/>
<path d="M0 0 C3.465 1.485 3.465 1.485 7 3 C7 3.66 7 4.32 7 5 C4.03 4.01 1.06 3.02 -2 2 C-1.34 1.34 -0.68 0.68 0 0 Z " fill="#181818" transform="translate(336,132)"/>
<path d="M0 0 C-0.33 0.66 -0.66 1.32 -1 2 C-3.32156597 2.40729228 -5.6568787 2.74438677 -8 3 C-8 2.34 -8 1.68 -8 1 C-3.375 -1.125 -3.375 -1.125 0 0 Z " fill="#161616" transform="translate(232,86)"/>
<path d="M0 0 C0.99 0.33 1.98 0.66 3 1 C2.67 2.65 2.34 4.3 2 6 C1.01 6.33 0.02 6.66 -1 7 C-0.67 4.69 -0.34 2.38 0 0 Z " fill="#2A2A2A" transform="translate(145,65)"/>
<path d="M0 0 C1.32 0 2.64 0 4 0 C6.25 2.5 6.25 2.5 8 5 C5 5 5 5 2.3125 2.5 C1.549375 1.675 0.78625 0.85 0 0 Z " fill="#202020" transform="translate(122,56)"/>
<path d="M0 0 C0.66 0 1.32 0 2 0 C2 1.98 2 3.96 2 6 C1.01 6 0.02 6 -1 6 C-1.042721 4.33388095 -1.04063832 2.66617115 -1 1 C-0.67 0.67 -0.34 0.34 0 0 Z " fill="#2D2D2D" transform="translate(71,245)"/>
<path d="M0 0 C2.89932357 2.39509338 3.50168276 4.31245243 4 8 C3.01 8 2.02 8 1 8 C0.814375 6.824375 0.814375 6.824375 0.625 5.625 C0.20882007 2.85942178 0.20882007 2.85942178 -2 1 C-1.34 0.67 -0.68 0.34 0 0 Z " fill="#292929" transform="translate(222,245)"/>
<path d="M0 0 C-0.33 0.99 -0.66 1.98 -1 3 C-2.98 3.33 -4.96 3.66 -7 4 C-7 3.01 -7 2.02 -7 1 C-4.53721199 -0.231394 -2.7204945 -0.07159196 0 0 Z " fill="#0F0F0F" transform="translate(101,242)"/>
<path d="M0 0 C0.99 0.66 1.98 1.32 3 2 C0.42786866 3.61949011 -0.67669159 4.04408751 -3.75 3.625 C-4.4925 3.41875 -5.235 3.2125 -6 3 C-3 1 -3 1 0 0 Z " fill="#262626" transform="translate(236,217)"/>
<path d="M0 0 C3.79588866 0.54226981 5.47211993 2.20127563 8 5 C5 5 5 5 2.3125 2.5 C1.549375 1.675 0.78625 0.85 0 0 Z " fill="#212121" transform="translate(258,35)"/>
</svg>
